<?xml version="1.0" encoding="utf-8"?>
<!-- Generator: Adobe Illustrator 19.0.0, SVG Export Plug-In . SVG Version: 6.00 Build 0)  -->
<svg version="1.1" id="Layer_1" xmlns="http://www.w3.org/2000/svg" xmlns:xlink="http://www.w3.org/1999/xlink" x="0px" y="0px"
	 viewBox="-26 -116 906.4 792" style="enable-background:new -26 -116 906.4 792;" xml:space="preserve">
<g>
	<path d="M483.3,512.1c-0.2,3.2-0.5,6.1-0.6,9.1c-0.7,25-1.1,50-2.1,75c-0.3,7.2-1.4,14.6-3.3,21.6c-3.5,12.5-21,17.7-30.3,6.7
		c-5.9-6.9-10.9-14.7-15.2-22.8c-12.4-23.2-24.1-46.8-36.2-70.1c-5.8-11.1-5.9-11-18.4-10.9c-36.1,0.3-71.8-2.1-107.3-9.4
		c-14.3-2.9-28.2,1.6-40.5,9.5c-10.4,6.6-20.1,14.2-30.1,21.5c-13.5,9.9-27.4,18.9-44,22.9c-10,2.4-20,3.2-30.2,0.9
		c-16.4-3.7-26.6-15.3-28.5-31.9c-0.1-1.1-0.2-2.3-0.3-3.7c-7.7,3-14.9,6.1-22.4,8.6c-12.6,4.3-25.5,6.5-38.8,3.9
		C11,538.1-2.7,518,0.8,493.6c3.3-22.8,14.8-41.3,30.4-57.3c9-9.2,19.3-17.3,29.5-25.3c8.5-6.7,18.2-5.2,23.7,2.7
		c5.4,7.6,3.5,17-5,23c-14.6,10.4-28.1,22.1-37.5,37.6c-3.8,6.3-6.8,13.4-8.7,20.5c-3.3,12.3,1.5,17.7,14.3,17.1
		c14.7-0.7,27.9-6.5,40.2-13.9c12.8-7.7,25-16.4,37.3-25c4.6-3.2,9.3-5.3,14.9-4c11.6,2.6,16.2,15.8,8.9,25.7
		c-4.5,6.2-9.5,12.1-13.4,18.6c-2.9,4.8-4.7,10.2-6.6,15.5c-1.3,3.6,0.4,5.6,4.3,6.2c9.7,1.5,18.8-0.9,26.8-5.8
		c11.8-7.2,23-15.3,34.2-23.4c11.9-8.6,23.8-17.2,37.9-21.8c16.2-5.2,32.5-7.2,49.6-3.5c34.7,7.5,70,9,105.4,7.5
		c12.5-0.5,22,3.1,28,14.1c10.6,19.4,20.9,39,31.3,58.6c0.7,1.3,1.4,2.7,2.6,5.2c0.2-2.5,0.4-3.8,0.5-5.2c0.6-17.5,1.1-35,1.9-52.4
		c0.2-3.8,1.2-7.5,1.8-11.3c1.5-9.3,8.2-13.9,16.2-15.5c12.7-2.6,25.6-3.9,38.5-5.7c9-1.2,16,2.9,21.4,9.5
		c6.3,7.7,12.4,15.7,17.9,24c8.7,13.2,16.8,26.8,25.2,40.2c0.7,1.2,1.6,2.3,3.2,3.2c-1.2-10.3-2.6-20.7-3.7-31
		c-1.6-15.4-3-30.8-4.5-46.2c-1.4-14.7,5.2-23.7,18.6-30c46-21.6,84.4-52.6,112.7-95.2c25.8-38.8,40.4-81.6,43.7-128
		c1.3-18.7-0.1-37.7,1.1-56.4c2.6-39.1,21.7-67.8,57.2-85.1c1-0.5,2.1-1,3.1-1.6c0.3-0.1,0.4-0.5,0.9-1.3
		c-7.2-5.8-14.4-11.6-21.1-16.9c-9.3,5.3-17.7,11-26.8,15.2C740,83.7,722.4,88,704,87.9c-25.1-0.2-44.7-17.6-46.7-41.1
		c-1.5-18.2,9.4-36.2,26.6-45c21.4-11,42.3-7.1,63.2,1.3c7.5,3,14.7,6.8,22.9,10.5c-3-15.5-9-28.8-21.3-38.3
		c-11.6-9-25.2-12.7-39.6-13.5c-33.7-1.9-63.6,9.2-90.6,28.5c-32.3,23.1-54.1,54.3-68.2,91c-0.9,2.3-1.9,4.6-2.7,7
		c-1.9,6.4-6.3,10.1-12.5,12.6c-29.2,11.7-58.6,22.9-87.3,35.6c-102.3,45.2-190,109.8-259.6,198c-12.6,16-25.4,31.7-34.7,50
		c-1.3,2.5-2.2,5.2-3.2,7.8c-0.3,0.7-0.3,1.5-0.8,3.8c8-2.1,15.3-3.5,22.2-5.9c21.7-7.4,41.7-18.3,61.3-30.1
		c2.9-1.7,5.7-3.5,8.6-5.1c6.2-3.3,13.1-2.4,18.1,2.1c5.2,4.7,6.7,11.5,4,18.2c-3.2,8-6.6,16-9.8,24c-0.8,2.1-1.3,4.5-1.7,6.8
		c-1.7,9.8-0.9,10.6,8.9,8.5c15-3.3,28.3-10.7,41.1-18.7c18.3-11.4,35-25,50.6-39.8c4.2-3.9,8.8-6.7,14.8-5.8
		c11.9,1.7,17.7,14.3,11.2,24.7c-6.1,9.8-10.3,20.2-11.6,31.6c-1.7,14.5,2.5,18.7,16.9,15.6c10.8-2.3,21.9-5,31.9-9.6
		c55.4-25.2,106.5-57.2,150.8-99.3c16-15.2,29.8-32.4,38.6-53c6.2-14.7,9.1-29.7,3.4-45.2c-6.3-17.2-19.6-27.6-36.3-33.3
		c-9.3-3.2-19.4-4.3-29.1-6.3c-2.4-0.5-5-0.3-7.4-0.8c-7.7-1.4-13-8.2-12.8-16.1s6-14.8,13.9-15.1c36.3-1.2,83.7,16.1,100.8,57.9
		c8.2,20,7.5,40.3,1.1,60.6c-7.9,24.8-22.7,45.5-40.1,64.4c-22,23.9-47.5,43.8-74.5,61.8c-29.8,19.9-60.3,38.6-93.2,53
		c-14.2,6.2-28.8,11.4-44.3,13.1c-15.1,1.7-29.3-0.3-40.6-11.8c-6.6-6.7-9.6-15-10.7-24.2c-0.2-1.6-0.4-3.2-0.6-5.4
		c-5.3,3.5-10,6.8-14.9,9.8c-16.9,10.4-34.3,19.9-54.1,23.6c-9.3,1.7-18.6,1.7-27.4-2.4c-12.7-5.8-19.5-18.6-18.6-34.7
		c0.1-1.4,0.2-2.9,0.3-5.3c-2.9,1.4-5,2.5-7.2,3.6c-16.8,8.1-34,15.5-52.5,18.6c-10.8,1.8-21.7,2-31.3-4.7
		c-11-7.7-14.4-20.7-9.9-36.3c3.9-13.5,10.8-25.5,18.8-36.8c39.2-55.4,85.1-104.7,138.4-146.8c43.9-34.6,91.5-63.3,142.2-86.6
		c32-14.7,65-27.5,97.4-41.3c2.2-0.9,4.3-3.5,5.3-5.8C540,21.7,568.5-16.4,611-43c31-19.4,64.6-29.9,101.5-27.2
		c27.9,2,53,11.4,70.5,34.4c14.6,19.3,23,40.9,17.9,65.8c-0.5,2.7,0.3,4,2.4,5.8c14.9,12.3,29.6,24.8,44.3,37.3
		c5.6,4.7,7.9,10.8,5.8,17.9c-2.2,7.4-8,10.5-15.3,11.6c-18.5,3-34.7,10.4-47,24.9c-13.2,15.5-16.7,34.2-15.6,53.8
		c2.7,51.4-6.2,100.5-27.7,147.2c-23.1,50.2-58,90.3-103.8,120.9c-13,8.6-26.9,15.9-40.7,23.4c-3.5,1.9-3.7,4.1-3.3,7.2
		c2.1,18.5,4.3,37.1,6.3,55.6c1.9,17.2,3.6,34.4,5.2,51.7c0.4,4.3-0.1,8.7-0.6,12.9c-2,15.6-18.2,23-30.3,13.1
		c-7-5.6-12.8-13.2-17.7-20.7c-15.8-24.1-31.3-48.4-46.4-72.9c-5-8.2-10.2-13.2-20.5-9.3C491.9,511.9,487.7,511.6,483.3,512.1z
		 M754.1,41.8c-13.6-7.2-26.5-13.8-41.5-14.7c-6.2-0.4-11.8,1.4-16.8,5.1c-5.4,4-7.7,9.5-6.1,14.7c1.9,6,6.8,8.6,12.6,8.9
		c5.1,0.3,10.3-0.2,15.3-1C730.2,52.6,742.4,49.1,754.1,41.8z"/>
</g>
</svg>
