<?xml version="1.0" encoding="utf-8"?>
<!-- Generator: Adobe Illustrator 19.0.0, SVG Export Plug-In . SVG Version: 6.00 Build 0)  -->
<svg version="1.1" id="Layer_1" xmlns="http://www.w3.org/2000/svg" xmlns:xlink="http://www.w3.org/1999/xlink" x="0px" y="0px"
	 viewBox="-26 -116 906.4 792" style="enable-background:new -26 -116 906.4 792;" xml:space="preserve">
<g>
	<path d="M798.4,488.4c-2.2,0-4,0-5.7,0c-37.1,0-74.3,0.1-111.4-0.1c-3.9,0-8.4-1.3-11.7-3.4c-4.7-2.9-6.1-8.1-5.1-13.5
		s4.3-9.2,9.6-10.9c2.1-0.7,4.4-0.9,6.6-0.9c46.7,0,93.4,0,140.1,0c7.6,0,12.8,3.5,15.1,9.7c1.7,4.6,0.4,8.8-1.3,13
		c-10.1,24.5-23.7,47-39.3,68.2c-29.9,40.6-65.7,75.2-105.7,105.7c-4.1,3.1-8.4,4.7-13.7,4.5c-34.5-0.9-61.2-15.4-79.8-44.7
		c-0.8-1.2-1.6-2.5-2.8-4.3c-25.1,31.6-56.9,49.3-97.5,49s-72.2-18.5-97.2-50.7c-25.1,32.1-57,50.6-98.1,50.7
		c-41,0-72.9-18.1-97.4-49.6c-7.3,7.4-13.9,14.9-21.3,21.5c-14.2,12.7-30.1,22.7-49.1,26.6c-3.5,0.7-7.1,1-10.7,1.5
		c-5.3,0.6-9.8-1-14.3-4c-27.5-18.8-50.2-42-65.7-71.8c-11.4-21.8-18.4-45.1-21.5-69.5c-1.6-12.7-2.3-25.6-2.8-38.5
		c-0.5-11.9,5.2-17.4,17-17.4c69.5,0,138.9,0,208.4,0c1.9,0,3.9,0,5.8,0c0.1-0.3,0.2-0.6,0.2-0.9c-6-2.3-12-4.6-18-7
		C163.7,424.8,100.7,390.2,43.2,346c-1.9-1.5-3.8-2.9-5.6-4.5c-8.8-7.9-7-20,3.9-24.8C52,312,62.8,308,73,302.7
		c30.3-15.9,56.9-37.1,81.8-60.3c52.6-49,96-105.5,133.3-166.8C314,32.9,336.4-11.5,353-58.6c3.4-9.6,6.3-19.3,9.3-29
		c2.9-9.5,8.8-14.3,16.4-13.2c8.2,1.2,12.6,7.2,12.6,17.3c0,111.8,0,223.7,0,335.5c0,2.2,0,4.4,0,8c2.3-2.9,3.8-4.8,5.2-6.7
		c33.8-45.7,53.4-96.9,60-153.2c5.4-45.8,0.7-90.5-17.8-133.2c-4.5-10.4-10.3-20.2-15.8-30.2c-3.9-7-3.9-13.1,0.6-18.3
		c4.3-5,10.7-6.1,18-3.2c34,13.8,61.8,36.2,86.8,62.4c49,51.5,83.8,111.9,108,178.4c19.5,53.6,29.8,108.9,29.5,166.1
		c-0.3,53.6-10.5,105.2-30.4,154.9c-2.5,6.2-6.6,10.3-13.3,11.3c-26.2,3.9-52.3,8.4-78.5,11.4c-29.3,3.3-58.9,2.9-88.4,1.4
		c-32.6-1.7-64.9-6.1-97-12.3c-1.9-0.4-3.9-0.6-5.8-0.6c-100,0-200,0-300,0c-1.3,0-2.6,0-4.7,0c0.7,7.8,1.3,15.2,2.2,22.6
		c3.3,27,11,52.6,26.2,75.6c11.6,17.5,26.8,31.3,43.8,43.3c1.2,0.8,3.1,1,4.6,0.7c15.3-2.5,28.2-10,39.2-20.4
		c9.1-8.6,17.4-18.1,25.3-27.9c8-9.8,18-10.3,25.7-0.3c13.6,17.7,29.7,32.5,50.1,41.9c30.2,13.9,58.8,9.5,86-8.5
		c13.5-8.9,24.8-20.2,34.7-32.9c8.2-10.6,17.8-10.6,26.1,0.1c14.2,18.2,30.9,33.4,52.4,42.5c26.8,11.4,52.6,8.4,77.4-6.1
		c16-9.3,29.2-21.9,40.4-36.5c8.8-11.5,20.5-10.3,27.2,2.6c12.1,23.2,29.9,39.3,56.2,44.9c5.9,1.2,10.4,0.5,15.5-3.5
		c37.9-30.5,72.3-64.2,99.6-104.6c6.2-9.2,11.1-19.4,16.6-29.2C797.5,491.5,797.7,490.1,798.4,488.4z M391.2,466.6
		c0.8,0.3,1.2,0.6,1.6,0.7c10.5,1.3,21.1,2.8,31.6,3.8c61.1,5.8,121.6,2.4,181.8-9.4c3-0.6,4.2-1.8,5.2-4.5
		c10.5-28.3,17.7-57.3,21.7-87.3c5.5-41,4.2-81.8-2.5-122.5c-5.9-36.1-16.2-71.1-30.4-104.8C574.8,82.4,539.9,28.8,491.9-15.9
		c-7.8-7.3-16.3-13.9-24.7-21c-0.4,1.2-0.6,1.5-0.6,1.8c0.4,1.4,0.9,2.9,1.4,4.3c6.6,17.7,11.3,35.9,14.2,54.6
		c6.7,42.7,4.4,85.1-6.1,126.9C461.6,208,435,259.1,394.4,302.6c-2.3,2.5-3.3,4.9-3.3,8.3c0.1,50.3,0.1,100.6,0.1,150.9
		C391.2,463.5,391.2,465.1,391.2,466.6z M362.3,331.5c-1.3,0.9-1.9,1.3-2.5,1.7c-15.7,11.1-32.3,20.6-51.2,25.3
		c-7.6,1.9-14.9-2.2-17.1-9.3c-2.4-7.8,1.2-15.2,9-18c3.4-1.2,6.8-2.1,10.2-3.4c18.6-7.2,34-19.3,48.7-32.3c2.3-2.1,3.2-4.2,3.2-7.3
		c-0.1-95.7-0.1-191.3-0.1-287c0-1.6-0.1-3.1-0.2-5.6c-0.8,1.3-1.2,1.7-1.4,2.2c-17.7,40.3-38.9,78.8-62.8,115.8
		c-35,54.1-74.8,104.4-122.2,148.3c-30.2,28-62.9,52.6-100.4,70.3c-0.5,0.2-1.1,0.3-2.5,0.7c87.3,65.7,183.8,105.9,289.3,127.8
		C362.3,416.9,362.3,374.6,362.3,331.5z"/>
</g>
</svg>
