<?xml version="1.0" encoding="utf-8"?>
<!-- Generator: Adobe Illustrator 19.0.0, SVG Export Plug-In . SVG Version: 6.00 Build 0)  -->
<svg version="1.1" id="Layer_1" xmlns="http://www.w3.org/2000/svg" xmlns:xlink="http://www.w3.org/1999/xlink" x="0px" y="0px"
	 viewBox="-26 -116 906.4 792" style="enable-background:new -26 -116 906.4 792;" xml:space="preserve">
<g>
	<path d="M107.4,430c0-2.4,0-4.2,0-6c0-24,0-48,0-72c0-11.5,6.4-17.9,17.9-18c19.8,0,39.7,0,59.5,0c12.2,0,18.5,6.3,18.5,18.4
		c0,23.8,0,47.7,0,71.5c0,1.8,0,3.6,0,5.8c16,0,31.8,0,48,0c0-1.9,0-3.7,0-5.5c0.1-23.3,0.1-46.7,0.2-70
		c0.1-14.6,5.7-20.2,20.3-20.2c19,0,38,0,57,0c12.1,0,18.4,6.3,18.4,18.5c0,23.8,0,47.7,0,71.5c0,1.8,0,3.6,0,5.7
		c21.4,0,42.3,0,63.6,0c0-53,0-106,0-159.7c-1.7,0-3.5,0-5.3,0c-23.3,0-46.7,0-70,0c-14.8,0-20.3-5.6-20.3-20.6
		c0-23.2,0-46.3,0-69.5c0-1.8,0-3.6,0-5.6c-10.7,0-21,0-32,0c0,1.8,0,3.5,0,5.3c0,23.8,0,47.7,0,71.5c0,12.9-6.1,19-19,19
		c-24.8,0-49.7,0-74.5,0c-12.2,0-18.5-6.3-18.5-18.4c0-23.8,0-47.7,0-71.5c0-1.8,0-3.6,0-5.7c-10.7,0-21.1,0-32,0c0,2,0,3.7,0,5.5
		c0,23.7,0,47.3,0,71c0,13.2-6,19.1-19.3,19.1c-30,0-60,0-90,0c-12.5,0-18.7-6.2-18.7-18.7c0-51.5,0-103-0.1-154.5
		c0-6.6,2.2-11.8,7.1-16.3C76.7,27,135-26.8,193.5-80.4c20.5-18.8,47.4-18.6,68,0.3C319.8-26.6,378,27.1,436.3,80.6
		c4.9,4.5,7.1,9.7,7,16.3c-0.1,38-0.1,76-0.1,114c0,1.8,0,3.6,0,6.6c2.7-2.4,4.7-4.1,6.7-5.9c47.7-43.9,95.4-87.8,143.1-131.7
		c20.8-19.1,47.6-19.1,68.4,0c58.3,53.5,116.5,107.2,174.8,160.7c4.9,4.5,7.1,9.7,7.1,16.3c-0.1,126.2-0.1,252.3-0.1,378.5
		c0,12.6-6.1,18.7-18.7,18.8c-30.3,0-60.7,0-91,0c-11.9,0-18.3-6.3-18.3-18.1c0-24,0-48,0-72c0-1.8,0-3.6,0-5.6c-10.7,0-21,0-32,0
		c0,1.8,0,3.6,0,5.3c0,23.8,0,47.7,0,71.5c0,12.9-6.1,18.9-19,18.9c-24.8,0-49.7,0-74.5,0c-12.2,0-18.5-6.3-18.5-18.4
		c0-23.8,0-47.7,0-71.5c0-1.8,0-3.6,0-5.7c-10.7,0-21.1,0-32,0c0,2,0,3.8,0,5.6c0,23.8,0,47.7,0,71.5c0,12.5-6.2,18.6-18.8,18.6
		c-62.2,0-124.3,0-186.5,0c-12.5,0-18.7-6.2-18.7-18.8c0-25.5,0-51,0-76.9c-10.6,0-21,0-32,0c0,1.8,0,3.5,0,5.3
		c0,23.8,0,47.7,0,71.5c0,12.6-6.1,18.8-18.6,18.8c-25,0-50,0-75,0c-12.1,0-18.3-6.3-18.4-18.6c0-23.8,0-47.7,0-71.5
		c0-1.8,0-3.6,0-5.6c-10.7,0-21,0-32,0c0,1.7,0,3.5,0,5.2c0,23.8,0,47.7,0,71.5c0,12.9-6.1,19-18.9,19c-30.2,0-60.3,0-90.5,0
		c-12.2,0-18.5-6.2-18.6-18.4c0-62.5,0-125,0-187.5c0-11.8,6.4-18.1,18.3-18.1c23.8,0,47.7,0,71.5,0C103.1,430,104.8,430,107.4,430z
		 M811.5,621.8c0-2.3,0-4.1,0-5.9c0-20,0-40,0-60c0-96.6,0-193.3-0.1-289.9c0-2.5-0.9-5.8-2.7-7.4
		c-56.2-51.9-112.5-103.7-168.8-155.5c-8.4-7.7-16.4-7.7-24.8-0.1c-56,51.6-112,103.2-168.1,154.7c-2.5,2.3-3.6,4.7-3.6,8.2
		c0.1,53,0.1,106,0.1,159c0,1.6,0.1,3.2,0.2,4.8c21.4,0,42.3,0,63.8,0c0-2,0-3.8,0-5.6c0-24,0-48,0-72c0-11.8,6.4-18.1,18.3-18.2
		c19.3,0,38.7,0,58,0c13.5,0,19.4,5.9,19.5,19.6c0.1,23.7,0.2,47.3,0.2,71c0,1.7,0,3.5,0,5.1c16.4,0,32,0,48,0c0-2.1,0-3.9,0-5.7
		c0-24.3,0-48.7,0-73c0-9.8,6.4-16.9,15.9-16.9c21.3-0.2,42.7-0.2,64,0c9.3,0.1,15.8,6.9,16.1,16.3c0.1,5.5,0,11,0,16.5
		c0,25.8,0,51.7,0,77.5c0,8.3-3.7,14.2-10.3,16.7c-11,4.2-21.6-3.7-21.7-16.5c-0.1-24.3,0-48.7,0-73c0-1.8,0-3.5,0-5.3
		c-11,0-21.2,0-32,0c0,2,0,3.8,0,5.6c0,23.8,0,47.7,0,71.5c0,12.5-6.2,18.6-18.8,18.6c-24.8,0-49.7,0-74.5,0
		c-12.5,0-18.7-6.2-18.7-18.7c-0.1-23.8-0.1-47.7-0.2-71.5c0-1.8,0-3.5,0-5.5c-10.9,0-21.1,0-31.8,0c0,2,0,3.8,0,5.6
		c0,23.2,0,46.3,0,69.5c0,15-5.5,20.6-20.4,20.6c-23.3,0-46.7,0-70,0c-1.8,0-3.5,0-5.6,0c0,2.5,0,4.3,0,6.1c0,21.5,0,43,0,64.5
		c0,13.5,0.1,27,0,40.5c-0.1,10.9-8.2,18.2-18.3,16.9c-8.3-1.1-13.6-8-13.6-18.1c0-34.7,0-69.3,0-104c0-1.8,0-3.6,0-5.8
		c-2.3,0-4.1,0-5.9,0c-23.8,0-47.7,0-71.5,0c-12.4,0-18.6-6.2-18.6-18.8c0-23.8,0-47.7,0-71.5c0-1.8,0-3.5,0-5.4
		c-10.9,0-21.1,0-31.8,0c0,1.7,0,3.2,0,4.6c-0.1,24-0.1,48-0.2,72c0,12.9-6.1,19.1-18.9,19.1c-24.8,0-49.7,0-74.5,0
		c-12.4,0-18.6-6.2-18.6-18.8c0-23.8,0-47.7,0-71.5c0-1.8,0-3.5,0-5.3c-11,0-21.4,0-32,0c0,25.9,0,51.4,0,76.8
		c0,12.6-6.2,18.7-18.7,18.8c-23.8,0-47.7,0-71.5,0c-1.8,0-3.6,0-5.5,0c0,53.6,0,106.6,0,159.8c21.3,0,42.2,0,63.6,0
		c0-2,0-3.8,0-5.6c0-24,0-48,0-72c0-11.8,6.4-18.1,18.3-18.2c19.7,0,39.3,0,59,0c12.5,0,18.7,6.2,18.7,18.7c0,23.8,0,47.7,0,71.5
		c0,1.8,0,3.6,0,5.4c16.3,0,32,0,48,0c0-2.2,0-4,0-5.8c0-23.8,0-47.7,0-71.5c0-12.2,6.3-18.4,18.6-18.4c19.7,0,39.3,0,59,0
		c12.2,0,18.4,6.3,18.4,18.5c0,24,0,48,0,72c0,1.8,0,3.5,0,5.2c53.7,0,106.6,0,160,0c0-2.1,0-3.8,0-5.6c0-23.8,0-47.7,0-71.5
		c0-12.3,6.2-18.6,18.4-18.6c19.7,0,39.3,0,59,0c12.5,0,18.6,6.2,18.6,18.8c0,23.8,0,47.7,0,71.5c0,1.8,0,3.5,0,5.3
		c16.3,0,32,0,48,0c0-26,0-51.7,0-77.3c0-11.9,6.3-18.3,18.1-18.3c19.8,0,39.7,0,59.5,0c12.1,0,18.3,6.3,18.3,18.6c0,24,0,48,0,72
		c0,1.7,0,3.5,0,5.3C769,621.8,789.8,621.8,811.5,621.8z M411.3,237.7c0.1-1.3,0.2-1.9,0.2-2.6c0-43.5,0.1-87-0.1-130.5
		c0-2.2-1.6-5-3.3-6.6C352.3,46.4,296.4-5,240.4-56.5c-9.1-8.3-16.8-8.3-25.9,0.1C158.6-5.1,102.8,46.3,47.1,97.6
		c-2.5,2.3-3.7,4.6-3.7,8.1c0.1,42.2,0.1,84.3,0.1,126.5c0,1.8,0,3.5,0,5.3c21.7,0,42.7,0,64,0c0-25.9,0-51.3,0-76.8
		c0-12.6,6.1-18.8,18.6-18.8c19.3,0,38.7,0,58,0c13.5,0,19.4,5.9,19.4,19.6c0,23.7,0,47.3,0,71c0,1.7,0,3.5,0,5.1c16.4,0,32,0,48,0
		c0-2.1,0-3.9,0-5.7c0-23.8,0-47.7,0-71.5c0-12.3,6.2-18.5,18.5-18.5c19.5,0,39,0,58.5,0c12.9,0,19,6.1,19.1,18.9
		c0,23.8,0,47.7,0,71.5c0,1.8,0,3.5,0,5.4C369,237.7,390,237.7,411.3,237.7z"/>
</g>
</svg>
