<?xml version="1.0" encoding="utf-8"?>
<!-- Generator: Adobe Illustrator 19.0.0, SVG Export Plug-In . SVG Version: 6.00 Build 0)  -->
<svg version="1.1" id="Layer_1" xmlns="http://www.w3.org/2000/svg" xmlns:xlink="http://www.w3.org/1999/xlink" x="0px" y="0px"
	 viewBox="-26 -116 906.4 792" style="enable-background:new -26 -116 906.4 792;" xml:space="preserve">
<g>
	<path d="M514.3,86c-7.1-2-14.1-4.4-21.2-6c-27.6-6.1-55.7-8.2-83.8-9.8c-37.1-2.1-74.3-3.4-111.4-1.2c-41.5,2.4-82.6,7.1-122.4,20
		c-12.1,3.9-23.7,8.9-33.8,16.8c-6,4.7-6,6.6-0.1,11.5c10.4,8.9,22.8,14.4,35.5,19.1c29.5,11,60.2,16.8,91.3,20.7
		c43.9,5.4,88,6.8,132.2,5.7c45.8-1.1,91.5-4.9,136.8-12.4c32.4-5.3,64.5-11.9,95.3-23.6c11.5-4.4,22.3-10.3,33.3-15.8
		c3.4-1.7,6.4-4.3,9.2-6.8c11.8-10.3,12.9-20.7,3.3-33.2c-8.3-10.9-19.7-17.8-31.7-23.8c-26.7-13.4-55.2-21.2-84.4-27.1
		C487.7,5,412.1,1,336.2,2.6C284.7,3.7,233.4,7.9,182.6,17c-30.7,5.5-61,12.3-90,24.1c-14.4,5.8-28.2,12.7-40.2,22.8
		c-9.7,8.1-14.3,17.9-13.9,31c1.4,52.9,10.3,104.6,24.2,155.6c19.2,70.2,46,137.3,82.8,200.1c12.9,22.1,28.2,42.8,42.8,63.8
		c6.7,9.6,17.5,14.1,27.9,18.7c24,10.5,49.5,15.5,75.2,19.1c48.2,6.6,96.6,7.4,145.1,2.9c26.6-2.5,52.8-6.8,78.4-14.5
		s45.6-21.7,61.6-43.9c30-41.6,50.5-87.1,63.6-136.3c0.6-2.3,1.4-4.5,1.9-6.7c1.6-6.9,5.7-11.8,12.7-13.2c7.3-1.5,12.8,1.7,17.2,7.5
		c10.2,13.4,23.4,22.7,39.3,28.1c33.6,11.4,64.9-0.8,83.2-32.2c12.3-21.1,17.8-44.3,20.6-68.3c2-17.2,1.7-34.3-3.9-50.9
		c-7.2-21.2-20.8-36-43.7-39.8c-18.2-3-34.2,2.8-47,15.7c-21.9,22.2-31.3,48.6-24.5,79.8c0.5,2.3,1.3,4.5,2.2,6.6
		c4.5,11.3,11.5,19.3,24.5,20.7c7,0.8,11.5,5.2,13.2,12c1.5,6.3-0.5,11.9-5.6,16.1c-4.3,3.5-9.4,3.9-14.7,3.1
		c-15.1-2.3-27-9.9-36.4-21.7c-13-16.5-18.1-35.6-17.4-56.1c1.3-37.8,16.6-69,47.3-91.6c45.7-33.6,106.3-16.2,128.2,36.3
		c9.8,23.5,12.2,48,9.7,73c-3,28.8-10.4,56.3-25.6,81.2c-17.3,28.3-41.2,47.5-75,51.6c-27.5,3.3-52.4-4.4-74.9-20.4
		c-2.3-1.6-4.5-3.4-7.3-5.4c-2,5.9-3.9,11.4-5.8,16.9c-15.9,47.7-39,91.5-70.3,130.9c-12.8,16.2-29.9,25.7-48.7,32.7
		c-29.4,11-60,16.4-91,19.8c-34.8,3.9-69.8,4.8-104.8,3c-43.7-2.2-86.9-7.6-128.7-21.5c-24.5-8.1-44.2-21.8-59.6-43
		c-35.6-48.9-64-101.7-87.2-157.4c-23.3-55.9-40.9-113.6-51.6-173.3C10.2,159.6,6.7,125,6.5,90.1C6.4,69.9,15.6,54.3,30,41.2
		C47.8,25,69.3,15.2,91.7,7.1C130.6-6.9,171-14.4,211.8-20c48.8-6.7,97.8-9.6,147-9.7C434.6-30,510-25.1,584.1-8
		c33.2,7.7,65.6,17.7,94.5,36.6c11.4,7.5,21.5,16.5,28.6,28.2c16.2,26.5,11.8,52.5-12.2,72.6c-14.5,12.1-31.3,20.1-48.9,26.7
		c-41.4,15.5-84.5,23.8-128.1,29.7c-58.2,7.8-116.8,10.8-175.5,8.9c-47.4-1.5-94.5-5.7-140.7-16.7c-28.3-6.8-55.8-16-78.9-34.6
		c-10.5-8.4-18.3-18.5-17.8-33c0.5-12.8,7.4-22.2,16.7-30.1c12.3-10.4,27.1-16.2,42.1-21.3c30.4-10.2,61.9-15.6,93.7-19.1
		c56.7-6.2,113.5-4.4,170.2-0.7c27.4,1.8,54.9,4.3,81.4,11.8c10,2.8,19.9,6.8,28.8,12.1c12.2,7.1,17.1,19.6,14,30.9
		c-2.3,8.4-8.1,14.1-15.4,18.2c-12.8,7.2-27,10.3-41.3,12.7c-44.6,7.5-89.5,8.1-134.6,7.2c-18.8-0.4-37.6-1.3-56.4-2.2
		c-9.2-0.4-15.5-6.4-16.2-14.7c-0.7-7.7,4.4-15.1,12-16.7c3.2-0.7,6.6-0.5,9.9-0.3c43,2.5,85.9,3.3,128.9,0.8
		c23.6-1.4,47.2-3.5,70.1-9.9c1.7-0.5,3.3-1.1,5-1.7C514.2,86.9,514.3,86.5,514.3,86z"/>
</g>
</svg>
