<?xml version="1.0" encoding="utf-8"?>
<!-- Generator: Adobe Illustrator 19.0.0, SVG Export Plug-In . SVG Version: 6.00 Build 0)  -->
<svg version="1.1" id="Layer_1" xmlns="http://www.w3.org/2000/svg" xmlns:xlink="http://www.w3.org/1999/xlink" x="0px" y="0px"
	 viewBox="-26 -116 906.4 792" style="enable-background:new -26 -116 906.4 792;" xml:space="preserve">
<g>
	<path d="M563.9,267.9c-8.2,10.1-15.5,19.2-23,28.1c-9.6,11.5-19.4,22.7-29.1,34.1c-3.8,4.5-8.6,6.8-14.4,5.4
		c-5.9-1.4-9.2-5.6-10.6-11.5c-5.4-23-11.7-45.7-21.2-67.4c-9.4-21.5-23-40.2-38.4-57.7c-0.2-0.2-0.5-0.2-1.8-0.8
		c-4.8,12-10.1,23.7-14.1,35.9c-9.7,29.2-12.3,59.2-9.6,89.8c1.7,18.7,5.5,37.1,10.4,55.3c2.4,9.1-3,17.1-11.9,17.9
		c-4.4,0.4-8-1.4-11.2-4.3c-27-25-50.6-52.8-70.4-83.9c-1-1.5-2-3.1-3.4-5.3c-1.9,2.1-3.7,3.8-5.3,5.7c-8.4,9.7-12.8,21-13.3,33.9
		c-0.3,8.3-6.4,14.3-14.1,14s-13.7-6.8-13.1-15c2-30.5,15.3-54.3,41.7-70.4c7.3-4.5,15.3-2.1,19.8,6c9.2,16.8,20.1,32.4,32.2,47.2
		c3.9,4.8,8.1,9.5,12.9,15.1c-0.8-8.8-1.6-16.3-2.1-23.9c-3.6-53.9,8.6-103.9,37.3-149.8c5.8-9.3,15.6-10.1,23.3-2.2
		c34.3,35.4,57.9,76.8,70.5,124.5c0.4,1.4,0.8,2.7,1.2,4.1c0,0.1,0.2,0.2,0.6,0.4c0.8-0.8,1.7-1.7,2.4-2.6
		c13.9-16.6,27.8-33.2,41.7-49.8c7.4-8.9,15.2-9.3,23.7-1.4c22,20.5,40.4,43.6,52.1,71.6c6.1,14.6,9.9,29.9,12,46
		c0.8-0.5,1.4-0.7,1.8-1.2c23.2-28.2,37.4-60.3,41.5-96.6c5.4-48.3-6.5-92.9-29.4-135c-14.1-26-32.1-49-53-69.8
		c-0.3-0.3-0.7-0.5-1.5-1.1c-1.6,2.7-3.1,5.3-4.7,7.9c-8.5,14.5-17.9,28.5-30.7,39.7c-26.7,23.2-59.1,20.3-81.1-7.4
		c-13.7-17.1-20.6-37.2-24.2-58.5c-5.3-31.7-2.8-63,4.6-94c0.5-2,1-4.1,1.7-7c-14.3,9.4-26.7,19.4-36.6,32.3
		c-15.7,20.3-24.9,43.8-31,68.3c-6.5,26.5-11.6,53.3-17.3,80c-3.2,14.9-6.7,29.7-13.3,43.6c-7.5,15.8-18.7,27.6-36.5,30.6
		c-27.4,4.6-54.8-5.9-68-36.5c-6.7-15.5-9.3-31.9-8.6-48.8c0.1-1.5,0-3.1,0-4.6c-0.4-0.4-0.9-0.7-1.3-1.1c-0.9,1.3-1.7,2.8-2.8,4
		c-38.3,41.4-61.5,90.2-72,145.3c-8.2,43-7.2,85.8,4.2,128.2c6.6,24.4,16.2,47.4,32.6,67c5.2,6.2,11,11.8,17.1,18.3
		c0.9-5.7,1.3-10.2,2.5-14.5c7.8-30.2,25.6-52.4,54.8-63.7c34.7-13.4,66.1,10.3,64.2,47.4c-0.9,18.7-6.3,35.8-19.5,49.7
		c-1.1,1.2-2.1,2.5-2.7,4.5c1.3-0.5,2.6-0.9,3.8-1.5c39.2-17.1,78.4-34.3,117.6-51.4c3.2-1.4,6.8-2.4,10.2-2.3
		c5.7,0.1,10.5,4.8,11.6,10.3c1.3,6.2-1,12.1-6.6,14.9c-7.4,3.7-15,6.9-22.5,10.2c-40.4,17.7-80.7,35.3-121.1,53
		c-0.4,0.2-0.7,0.4-1.6,0.9c1.2,0.7,2,1.3,2.9,1.8c31.8,14.2,63.6,28.4,95.4,42.5c1.6,0.7,4,0.9,5.6,0.2
		c37.9-14.7,75.7-29.6,113.5-44.4c0.4-0.1,0.7-0.4,1.5-0.8c-1.2-0.9-2.1-1.7-3-2.4c-17.5-13-30-29.4-34.4-51.2
		c-3.2-15.6-1.3-30.6,6.1-44.8c15.1-28.7,47.5-36.3,73.4-16.7c20.9,15.8,32.1,37.8,36,63.3c1.3,8.7,0.6,17.9-0.4,26.7
		c-1,9.3-6.3,16.9-12.8,24.2c9,3.5,17.6,6.7,26.1,10.2c9.3,3.8,18.7,7.6,27.8,12c19.9,9.6,28.6,26.5,28.1,47.8
		c-0.7,29.8-13.2,54.3-37.7,71.6c-16.9,12-35.6,13.6-54.8,5.8c-54.5-22.1-109-44.4-163.5-66.8c-5.2-2.1-9.6-3-15.2-0.5
		c-34.9,15.3-70,30-104.9,45.1c-17,7.3-33.7,15.1-50.7,22.5c-20.6,9-42.3,3.3-57.3-15.1c-12.3-15.1-18.5-32.8-21.2-51.8
		c-1.8-12.6-1.9-25.3,2.3-37.6c3.1-9.1,9-15.6,18-19.4c18.2-7.8,36.2-15.8,54.9-23.9c-3.1-2.7-6.2-4.7-8.5-7.4
		c-5.2-6.2-11.8-10.4-18.6-14.7c-27.2-17.2-46.1-41.5-60-70.1c-13.4-27.6-20.8-56.9-23.8-87.2c-6.9-70,5.7-136.3,39.4-198.3
		c18.1-33.3,42.1-61.8,72.1-85.1c6.6-5.1,12.1-6,17.6-2.8s7.4,8.5,6.3,16.8c-2.4,17.3-3.2,34.6-0.6,51.9c1.4,9.5,3.6,18.7,8.4,27.1
		c8.4,14.7,21.7,18.3,37.8,14.8c5.8-1.3,9.1-6,12-10.9c7-12,9.9-25.3,12.8-38.7c6.3-29,11.8-58.3,19-87
		c7.4-29.6,19.9-57.2,39.3-81.2c19-23.5,43-40,71.2-50.6c5.6-2.1,10.7-1.4,15,2.8c4.4,4.3,5.2,9.7,3,15.3
		c-6.1,15.1-10.9,30.5-13.7,46.6c-5.6,32.3-5.6,64.4,5.5,95.6c2.9,8.2,7.2,16.3,12.4,23.1c12.4,16.2,27.2,17,42.6,3.7
		c14-12,23.4-27.4,31.8-43.5c1.9-3.6,3.6-7.4,5.5-11.1c4.8-9.3,14.6-11.2,22.4-4.3c25.7,22.7,47.6,48.6,65.1,78.1
		c19,32,32.3,66.2,37.5,103.2c8.6,60.9-3.5,117-41.2,166.3c-8.1,10.6-17.9,19.8-27.2,29.4c-4.2,4.4-9.5,5.6-15.3,3.1
		c-5.7-2.5-8.1-7.1-8.2-13.3c-0.5-28.1-8.9-54-22.4-78.3c-7.7-13.9-17.1-26.6-27.8-38.2C565.1,270.4,564.7,269.3,563.9,267.9z
		 M459.5,579.3c15,6.2,28.7,11.8,42.5,17.5c33.8,13.8,67.7,27.5,101.5,41.4c13.3,5.4,25.3,3.2,35.4-6.7c14-13.7,20.4-30.6,19.1-50.2
		c-0.6-8.7-4.6-15.6-13.4-19.2c-19.5-7.9-39-15.7-58.2-24.3c-8.2-3.7-15.5-3.3-23.6,0c-21.3,8.7-42.8,16.9-64.1,25.4
		C486,568.3,473.3,573.6,459.5,579.3z M386.7,578.3c-0.6-0.7-0.7-1-1-1.1c-32.3-14.4-64.6-28.9-97-43.1c-1.5-0.7-3.9-0.5-5.5,0.2
		c-22.8,9.8-45.6,19.9-68.4,29.7c-3,1.3-4.7,3.2-5.6,6.3c-2.8,9.6-1.5,19.2,0.4,28.7c2.6,12.9,7.3,24.8,16.3,34.7
		c7.4,8.2,13.3,9.3,23.3,5.1c0.9-0.4,1.8-0.8,2.7-1.2c27.9-12.4,55.8-24.8,83.8-37.1C352.5,593.1,369.4,585.8,386.7,578.3z
		 M324.2,430.5c0.3-18.2-6.7-25.7-20.1-24.5c-2.9,0.3-5.9,1.1-8.6,2.2c-21,8.4-38.8,34.8-38.9,57.4c0,6.1,0.9,11.6,7.8,13.8
		c1.2,0.4,2.2,1.3,3.3,1.9c12.4,6.8,21.4,6.2,32-3.1C315,464.9,323,447.7,324.2,430.5z M591.5,474.6c-0.8-16.7-8-33.8-22.4-47.4
		c-4-3.8-9.3-6.8-14.5-8.2c-8.5-2.3-17.4,3.2-22.1,13c-8,16.9-4.8,32.7,6,47.2c9,12,21.6,19.1,35.4,24.2c1.2,0.5,3.1,0,4.3-0.6
		C588.9,497.8,591.6,488.5,591.5,474.6z"/>
</g>
</svg>
