<?xml version="1.0" encoding="utf-8"?>
<!-- Generator: Adobe Illustrator 19.0.0, SVG Export Plug-In . SVG Version: 6.00 Build 0)  -->
<svg version="1.1" id="Layer_1" xmlns="http://www.w3.org/2000/svg" xmlns:xlink="http://www.w3.org/1999/xlink" x="0px" y="0px"
	 viewBox="-26 -116 906.4 792" style="enable-background:new -26 -116 906.4 792;" xml:space="preserve">
<g>
	<path d="M649.6,280c0,81.5,0,162.9,0,244.4c0,17.7-11.7,29.5-27.4,27.7c-11.7-1.3-20.4-10.1-21.9-22.2c-0.2-2-0.2-4-0.2-6
		c0-161.9,0-323.8,0-485.7c0-8.9,0.9-17.3,8-23.7c7.7-6.8,16.4-8.5,25.8-4.7c9.4,3.7,14.7,10.9,15.4,21.2c0.3,4,0.2,8,0.2,12.1
		C649.5,121.9,649.5,201,649.6,280L649.6,280z"/>
	<path d="M452,280c0,81.5,0,162.9,0,244.4c0,17.7-11.7,29.5-27.4,27.7c-11.7-1.3-20.4-10.1-21.9-22.2c-0.2-2-0.2-4-0.2-6
		c0-161.9,0-323.8,0-485.7c0-8.9,0.9-17.3,8-23.7c7.7-6.8,16.4-8.5,25.8-4.7c9.4,3.7,14.7,10.9,15.4,21.2c0.3,4,0.2,8,0.2,12.1
		C451.9,121.9,451.9,201,452,280C451.9,280,451.9,280,452,280z"/>
	<path d="M155.3,305.5c0,73,0,146,0,219.1c0,13.3-5.7,22.3-16.4,26.1c-15.6,5.7-31.9-5-33-21.6c-0.1-1.8-0.1-3.6-0.1-5.4
		c0-145.8,0.1-291.7,0-437.5c0-11.6,3-21,14-26.4c14.6-7.2,31.9,1.7,34.7,17.7c0.5,3.1,0.7,6.4,0.7,9.6
		C155.3,159.8,155.3,232.6,155.3,305.5L155.3,305.5z"/>
	<path d="M748.5,366.8c0,52.7,0,105.4,0,158.1c0,14.6-7.6,24.6-20.1,26.8c-14.7,2.6-27.8-7.5-29.2-22.5c-0.2-2.2-0.1-4.4-0.1-6.6
		c0-103.6,0-207.2,0-310.8c0-3.8,0.1-7.7,0.8-11.4c2.4-12.3,13-20.1,26-19.4c11.6,0.6,21.3,10.2,22.4,22.2c0.2,2.6,0.2,5.2,0.2,7.8
		C748.5,262.9,748.5,314.9,748.5,366.8z"/>
	<path d="M204.8,366.3c0-52.7,0-105.4,0-158c0-13.8,5.7-22.4,16.9-26.2c13.7-4.6,28.6,3.8,31.6,17.9c0.5,2.5,0.8,5.2,0.8,7.8
		c0,106,0.1,211.9,0,317.9c0,16.9-12.6,28.4-28.1,26.3c-11.7-1.6-20.5-10.9-21.2-22.8c-0.3-5.4-0.1-10.9-0.1-16.3
		C204.8,464,204.8,415.2,204.8,366.3z"/>
	<path d="M550.8,391.6c0,44.6,0,89.3,0,133.9c0,14.7-8.6,25-21.8,26.6c-12.6,1.5-24.2-6.7-26.8-19.1c-0.7-3.1-0.8-6.4-0.8-9.6
		c0-87.2,0-174.5,0-261.7c0-3,0-6,0.4-9c1.5-13.3,11.8-22.4,24.9-22.2c12.8,0.2,22.7,9.5,24,22.5c0.2,2.4,0.3,4.8,0.3,7.2
		C550.8,303.9,550.8,347.7,550.8,391.6z"/>
	<path d="M847.4,416.1c0,36.8,0.1,73.6,0,110.4c-0.1,16.8-13.6,28.2-29.4,25.2c-10.9-2.1-19-11.3-19.9-22.8
		c-0.1-1.8-0.1-3.6-0.1-5.4c0-71.4,0-142.7,0.1-214.1c0-4.6,0.4-9.3,1.8-13.6c3.5-10.8,14.8-17.3,26.2-15.8
		c11.6,1.5,20.6,10.9,21.2,22.8c0.4,9.2,0.2,18.5,0.2,27.7C847.4,359,847.4,387.6,847.4,416.1z"/>
	<path d="M303.6,415.1c0-35.4,0-70.8,0-106.1c0-3.8,0.1-7.7,1-11.4c2.9-11.1,13.2-18.3,24.9-17.8c11.4,0.5,21,9,22.9,20.4
		c0.5,2.8,0.6,5.6,0.6,8.4c0,72,0,143.9,0,215.9c0,13.1-5.5,21.9-15.8,26c-15.5,6-32.3-4.2-33.4-20.8c-0.6-10-0.2-20.1-0.2-30.1
		C303.6,471.4,303.6,443.3,303.6,415.1z"/>
	<path d="M7,464.7c0-20.7-0.2-41.4,0.1-62.1c0.1-10.2,5.3-17.7,14.6-21.7c9.5-4.1,18.5-2.6,26.4,4.2c5.6,4.9,8.2,11.4,8.2,18.7
		c0.1,41.2,0.2,82.4,0,123.7c-0.1,14.3-11.4,25-25,24.8c-13.8-0.2-24.2-11-24.3-25.4C6.9,506.1,7,485.4,7,464.7L7,464.7z"/>
</g>
<g>
	<path d="M807.9-1.5V-115h35.9c10.8,0,19.4,2.9,25.9,8.8c6.4,5.8,9.7,13.7,9.7,23.5c0,6.6-1.6,12.4-4.9,17.5
		c-3.3,5.1-7.8,8.8-13.5,11.1c-5.7,2.3-14,3.4-24.7,3.4h-12v49.2H807.9z M841-100.6h-16.8v35.4H842c6.6,0,11.7-1.6,15.2-4.7
		c3.6-3.1,5.4-7.6,5.4-13.3C862.6-94.7,855.4-100.6,841-100.6z"/>
</g>
</svg>
