<?xml version="1.0" encoding="utf-8"?>
<!-- Generator: Adobe Illustrator 19.0.0, SVG Export Plug-In . SVG Version: 6.00 Build 0)  -->
<svg version="1.1" id="Layer_1" xmlns="http://www.w3.org/2000/svg" xmlns:xlink="http://www.w3.org/1999/xlink" x="0px" y="0px"
	 viewBox="-26 -116 906.4 792" style="enable-background:new -26 -116 906.4 792;" xml:space="preserve">
<g>
	<path d="M334.5,465c-3,0-5,0-7,0c-30.5-0.1-61,0.4-91.5-0.3c-37.5-0.9-74.3-6.1-109.9-18.6c-36.5-12.9-68.8-32.1-93.4-62.6
		c-30.6-38-41.8-81.6-36.2-129.6c4.8-41.4,21.3-77.5,50.7-107.3c34.5-35,76.2-52.8,125.7-50.8c2,0.1,4,0.1,6,0.1
		c0.3,0,0.6-0.2,1.4-0.4c1.2-6.5,2.2-13.2,3.6-19.8C197,14.1,229.7-33.7,284.3-65.7c37.2-21.8,78-29.9,120.8-29.4
		C438.3-94.7,470.8-90,502-78c46.6,17.9,83.4,47.4,107.5,91.6c3.4,6.3,6.2,13,8.4,19.7c1.6,4.7,3.6,5.5,8.3,4.3
		c30.5-7.8,61.1-7.4,91.4,0.9c51.3,14.1,88,46.3,113.3,92.3c18.7,34.2,28.9,70.7,28.2,109.9c-0.8,43-13.6,82.3-38.4,117.3
		c-39.1,54.9-93.1,86.8-158.3,100.8c-23.8,5.1-47.8,6.3-72.1,6.1c-11.2-0.1-22.3,0-33.5,0c-10.8-0.1-17-5.9-17.7-16.8
		c-1.7-25.6-8.6-50.1-14.4-75.7c-2.1,1.8-3.7,3.1-5.3,4.5c-19.3,16-38.2,32.3-54.2,51.7c-3.8,4.6-7.4,9.4-10.6,14.5
		c-11.7,18.8-7.9,42.5,8.9,57c16.6,14.3,41.6,14.5,58.3,0.4c1.5-1.3,3-2.6,4.6-3.9c6.9-5.4,15.9-4.7,21.7,1.5s5.7,15.7-0.6,22.1
		c-11.4,11.7-25.3,19.1-41.4,21.6c-50.8,7.9-93.3-31.2-89.8-82.5c1.3-19.6,10.6-35.8,23-50.5c19.1-22.6,41.7-41.7,64.1-60.9
		c6.6-5.6,13.2-11.2,19.9-16.8c11.4-9.5,24.8-5.4,27.8,9.2c6,29.8,11.4,59.8,17,89.7c0.1,0.8,0.3,1.6,0.5,2.9c11.4,0,22.7,0.1,34,0
		c49.3-0.3,95.3-12,136.6-39.6c41-27.3,69.8-64,82.7-112c10.1-37.4,7-74.2-7.3-110.1c-12.4-31-29.8-58.3-57.1-78.5
		C727,70.2,692.8,61.6,655.3,65.4c-8.4,0.9-16.7,2.8-25.4,4.3c1,9,2.2,17.4,2.8,25.8c1.6,24.7-1.2,48.6-14.1,70.4
		c-12.2,20.4-35.7,31.2-58,26.7c-26.1-5.2-43.7-31.4-38.8-58.3c4.7-26.1,18.9-46.7,39.1-63.2c8.1-6.6,17.1-12.1,26-17.6
		c3.1-1.9,3.6-3.3,2.4-6.6C573.9,4.5,544.5-25.2,504-42.9c-55.9-24.5-114.2-28-172.3-9.4c-61.8,19.8-98,64.5-114.3,126.3
		c-2.2,8.2-3.2,16.6-4.7,25.2c7,2.3,13.4,4.3,19.8,6.7c30,11.2,55.4,29.2,75.8,53.7c14.2,17.1,20.6,36.9,15,59.2
		c-6.4,25.6-30.3,41.3-56.5,37.6c-29.7-4.1-50.4-21.2-65.4-46c-12.3-20.3-17.8-42.9-20-66.3c-0.5-5.4-0.8-10.9-1.3-16.7
		c-14.6-1.1-28.9-0.5-42.8,3.1c-49,12.9-82.6,43.6-100,90.8c-14.5,39.2-14.4,78.8,4.3,117c14.7,30,38.8,50.8,68.1,65.9
		c28.4,14.5,58.8,21.9,90.3,25.7c36.4,4.5,72.9,2.6,109.4,3c12.3,0.1,24.7,0,37,0c8.8,0.1,14.8,4.5,16.7,12.9
		c9,39.5,15.9,79.4,16.3,120c0.2,20-3.2,39.1-14.9,56c-22.9,32.9-68.3,42.9-102.5,22.4c-35.2-21.1-47.9-65.9-29-102
		c10.2-19.4,25.5-34.5,41.3-49.1c6-5.6,15.7-4.7,21.4,1c6,6,6.4,15.2,0.5,21.7c-7.5,8.5-15.6,16.5-23,25c-4.2,4.9-8,10.3-11.3,15.8
		c-8.9,15.1-7.6,34.6,3.4,48.4c12.1,15.3,28.2,20.8,47.1,16.6c17.1-3.8,30.4-18.5,33-35.7c2.9-19.3,2.1-38.6-0.5-57.8
		C341.9,507.3,338,486.5,334.5,465z M213.6,132.7c-0.3,2-0.4,2.7-0.4,3.3c1.8,20.4,6,40.2,16.1,58.2c8.5,15.3,20.8,26.4,37.9,31.1
		c11.3,3.1,22-3.3,25.1-14.7c2.9-10.6-0.5-19.8-6.9-28c-11.3-14.7-25.3-26.5-41.5-35.5C234.4,141.8,224.1,137.6,213.6,132.7z
		 M598.6,83.7c-14.2,8.5-26.5,18-34.7,31.6c-4.8,8-8.5,16.9-11.1,25.9c-2.9,10.1,2.2,17,12.4,19.8c11.8,3.2,22.7-2.8,28.3-16.4
		C601.5,125.2,601.1,105,598.6,83.7z"/>
</g>
</svg>
