<?xml version="1.0" encoding="utf-8"?>
<!-- Generator: Adobe Illustrator 19.0.0, SVG Export Plug-In . SVG Version: 6.00 Build 0)  -->
<svg version="1.1" id="Layer_1" xmlns="http://www.w3.org/2000/svg" xmlns:xlink="http://www.w3.org/1999/xlink" x="0px" y="0px"
	 viewBox="-26 -116 906.4 792" style="enable-background:new -26 -116 906.4 792;" xml:space="preserve">
<g>
	<path d="M361,579.3c27.8-34,55.6-68,83.4-101.9c1.2-1.5,2.5-3.1,3.9-4.4c6-6,15-6.4,21.3-1.1c6.1,5.2,7.5,14.2,2.5,20.7
		c-7.5,9.9-15.5,19.4-23.3,29c-39,47.6-78,95.2-116.9,142.9c-4.6,5.6-9.9,9.1-17.4,7.3c-9.6-2.4-14.2-11.4-10.9-21.5
		c10.1-30.8,20.2-61.6,30.3-92.3c7.3-22.3,14.7-44.6,22-66.9c0.5-1.7,0.9-3.4,1.6-5.7c-10.1-0.3-19.8-0.7-29.6-1
		c-2.6-0.1-5.2-0.1-7.8-0.2c-13.5-0.4-20.2-9.3-16.5-22.3c8-28.2,16.1-56.4,24.2-84.6c12.4-43.2,24.7-86.5,37.1-129.7
		c3.1-10.7,7.7-14.1,18.7-14.1c55.5,0,111,0,166.5,0c16,0,23,11.7,15.3,25.8c-25.6,47-51.2,93.9-76.9,140.9
		c-0.8,1.5-1.6,3.1-2.6,5.1c1.4,0.2,2.3,0.4,3.2,0.4c42.1-0.3,84.2-0.1,126.3-1.2c43.7-1.1,84.4-13.1,120.4-38.4
		c45.3-31.9,73.6-74.9,81.4-130.1c5.6-39.6-2.9-76.7-22-111.7c-15.2-28-36.2-50.2-65.1-64.2c-32.5-15.7-66.3-18-101.1-9.4
		c-0.3,0.1-0.5,0.4-1.3,0.9c0.5,2.2,1,4.7,1.5,7.2c5,24.7,4.5,49.1-5.5,72.5c-8.6,20.1-23,34.9-44.8,40.5
		c-27.3,7.1-52.8-9.5-58.3-37.2c-3.6-18.2,1.4-34.6,10-50.2c11.8-21.4,29.6-36.6,50.6-48.5c2.7-1.5,5.4-3,8.1-4.5
		c-5.1-16.8-13.3-31.5-23.8-44.9c-26.7-34-62.1-53.6-104-62c-44.1-8.8-88-8.7-130.7,7c-46,16.9-77.8,49.1-97.3,93.7
		c-8.2,18.7-13.8,41.6-14.1,54.3c10.8,4.3,21.8,8,32.2,12.8c23.3,10.7,43.3,26.2,59.6,46c14.5,17.7,20,38.1,13.1,60.5
		c-8.3,26.9-36.6,40.6-65.7,32.1c-23.6-6.9-40-22.7-51.9-43.5c-12.1-21.1-17.2-44.2-19-68.2c-0.3-3.6-0.4-7.2-0.6-10.7
		c0-0.3-0.3-0.6-0.6-1.3c-16-1.1-32.1-0.5-47.6,4.5c-51.3,16.5-84.1,51.4-97.7,103.1c-10.6,40-6.9,78.8,16.8,114
		c16.7,24.9,40.1,41.6,67.2,53.6c32.2,14.2,66.3,20.3,101.2,22.5c9.3,0.6,18.6,0.7,27.9,1c10.2,0.3,16.9,6.7,16.8,15.9
		c-0.1,9-6.9,15.5-16.7,15.4c-44.8-0.2-88.9-5.3-131.1-21.6c-41.8-16.2-76.5-41.4-98.6-81.5c-17.3-31.3-22.8-65-18.8-100.3
		c4.9-42.7,22-79.7,52.8-109.8C90.1,93.3,127.5,76.2,172,76.3c5,0,10.1,0,15.2,0c2.2-10.5,4-21.1,6.8-31.4
		C208-8,237.4-50,283.8-79.4c32-20.2,67.3-30.2,105-32.4c45.1-2.5,89,3.3,130.2,22.9c41.2,19.7,73,49.3,92.8,91
		c2,4.3,3.8,8.7,5.1,13.2c1.1,3.7,2.7,4.6,6.7,3.6c24.2-6,48.7-6.8,73.3-2.4c47.8,8.6,85.7,32.9,113.6,72.6
		c21.2,30.1,34.2,63.7,38.1,100.4c5.9,55.5-7.9,106-41.4,150.5c-39.1,52.1-92.1,81.5-156,92.4c-22.7,3.8-45.5,3.7-68.3,3.8
		c-40.5,0.2-81,0.6-121.4,0.9c-10.1,0.1-17.1-5.1-17.5-13.9c-0.2-4.1,1.4-8.7,3.4-12.4c20.7-38.3,41.6-76.5,62.5-114.8
		c5.5-10.1,11-20.3,16.8-31c-1.7-0.1-2.9-0.3-4.1-0.3c-41.8,0-83.6,0-125.4-0.1c-2.9,0-4.6,0.3-5.6,3.7
		c-17.2,60.7-34.6,121.3-51.9,182c-0.2,0.8-0.4,1.5-0.7,2.7c1.5,0.2,2.7,0.5,4,0.5c11.1,0.3,22.2,0.6,33.3,0.9
		c15.4,0.4,21.7,9.4,16.8,24.1c-10.5,31.9-21,63.8-31.4,95.7c-0.5,1.6-1,3.3-1.5,5C360.3,579.3,360.7,579.3,361,579.3z M219.4,113.3
		c2.1,24.6,6.8,47.4,20.7,67.2c7.1,10.1,16.4,17.8,28.3,21.5c12.2,3.9,24-2.9,27.2-15.4c2.8-11-1.1-20.6-8.4-28.3
		c-8.5-8.9-17.7-17.3-27.4-24.9C248,124.3,234.5,118.1,219.4,113.3z M597.9,62.9c-5.4,3.5-10.3,6.4-14.8,9.9
		c-16,12.1-28.5,26.9-32.4,47.3c-1.7,8.8,1.1,15.9,7.4,19.8c6.9,4.2,15.4,3.7,22.4-1.7c7.4-5.7,12.7-13.1,15.6-22
		c4.6-14,5.6-28.4,3.9-43C599.6,69.8,598.7,66.7,597.9,62.9z"/>
</g>
</svg>
