<?xml version="1.0" encoding="utf-8"?>
<!-- Generator: Adobe Illustrator 19.0.0, SVG Export Plug-In . SVG Version: 6.00 Build 0)  -->
<svg version="1.1" id="Layer_1" xmlns="http://www.w3.org/2000/svg" xmlns:xlink="http://www.w3.org/1999/xlink" x="0px" y="0px"
	 viewBox="-26 -116 906.4 792" style="enable-background:new -26 -116 906.4 792;" xml:space="preserve">
<style type="text/css">
	.st0{fill:#FFFFFF;}
</style>
<g>
	<path d="M249.2-109.2c5.1,3.3,10.3,6.4,15.2,9.9c28.8,20.7,57.9,41,86.2,62.3c32.6,24.5,62.5,52,87.7,84.3
		c18.8,24.2,33.3,50.7,40.8,80.6c6.8,27,7.3,54.3,3.9,81.8c-3.7,30.1-12.4,59.1-19.6,88.5c-6.1,24.7-12.1,49.4-16.6,74.4
		c-2.8,15.7-3.5,32-3.9,48c-0.5,24.3,9.1,45.3,23.3,64.5c14.2,19.2,31.9,34.9,51.2,48.8c34.7,25.1,72.7,44.3,112.1,60.9
		c34.3,14.5,69.3,26.7,105,37.1c8,2.3,16.1,4.3,24.1,6.8c11.3,3.6,14.6,17.6,6.2,25.7c-4.1,4-9.1,5.7-14.7,4
		c-22.9-6.7-45.9-13.2-68.6-20.5c-38.2-12.4-75.2-27.6-111.1-45.8c-39.3-19.9-76.4-42.9-107.8-74.1c-19.5-19.4-35.3-41.4-44.4-67.6
		c-6.9-19.8-7.3-40.2-6.1-60.8c2.4-40,12.4-78.6,22.7-117.1c6.5-24.3,12.7-48.6,16.8-73.5c8.5-52.4-4-99.1-36.4-140.8
		c-20.6-26.5-44.5-49.6-71-69.9C312-26.3,279-49.8,246.3-73.8c-3.2-2.3-6.4-4.6-9.5-6.9c-10.8-8.1-9.2-22.3,3.1-27.7
		c0.6-0.2,1.1-0.5,1.7-0.8C244.1-109.2,246.7-109.2,249.2-109.2z"/>
	<path d="M37.9,410.7c0.6-3.3,1.3-6.6,1.9-10c4.6-27.6,17.3-51.3,34.6-72.9c19.6-24.5,43.5-44.5,67.7-64.1c18.5-15,37-30,54.9-45.6
		c13.8-12,25.7-25.8,34.2-42.3c7.9-15.1,10.1-31.1,8.5-47.9c-3.2-33.4-17.7-62-37.6-88.1C176,5.6,143.2-21.3,107.5-45
		C88.2-57.8,68.2-69.5,47.3-79.5c-4.6-2.2-6.9-6-9.3-10c0-3,0-6.1,0-9.1c2.7-4.7,6.1-8.6,11.4-10.6c2.5,0,5.1,0,7.6,0
		c16.5,8.9,33.3,17.1,49.3,26.8C148.9-56.8,187.9-26.5,220,12c20.8,24.9,37.3,52.4,45.6,84.1c6.9,26.2,8.9,52.6-0.3,78.9
		c-6.6,18.8-17.6,34.9-30.8,49.6c-18.8,20.9-41,38-62.9,55.5c-20.2,16.2-40.5,32.1-58.6,50.7c-12.9,13.2-24.2,27.6-32.6,44.1
		c-11.2,22.2-13,45.7-10.2,69.9c5.8,51.2,30.7,92,68.6,125.5c34.7,30.7,74.6,52.3,118.4,67.1c6.9,2.3,12.6,5.6,14,13.3
		c2.1,11.9-9,21.3-20.6,17.6c-22.5-7.1-44-16.6-64.7-27.7C153.5,623.3,124,602.1,99,575c-31-33.6-51.5-72.4-58.6-117.8
		c-1-6.1-1.7-12.2-2.5-18.4C37.9,429.4,37.9,420,37.9,410.7z"/>
	<path class="st0" d="M49.3-109.2c-5.3,2-8.7,5.9-11.4,10.6c0-3.5,0-7,0-10.6C41.7-109.2,45.5-109.2,49.3-109.2z"/>
	<path d="M687.9,305.9c9.8-8.7,18.6-16.7,27.5-24.5c20.9-18.2,41.9-36.4,65.1-51.6c3.9-2.5,8.2-4.6,12.5-6.2
		c7.1-2.7,13.3-0.5,18.1,5c4.7,5.4,7.1,11.7,3.5,18.5c-3.5,6.4-7.6,12.5-11.8,18.5c-30.1,43.1-59.4,86.6-84.9,132.7
		c-21.6,39-41,79-55.6,121.3c-0.8,2.2-1.3,4.7-1.3,7c-0.3,12-0.3,24.1-0.6,36.1c-0.1,6.8-4.3,12.3-10.5,14.4
		c-6.2,2.1-13,0.6-16.7-4.8c-2.1-3-3.8-7.2-3.7-10.8c0.5-26.3,0.9-52.7,2.5-79c1.7-27.5,4.5-55,7.3-82.4c1.3-12.7,3.5-25.3,5.5-37.9
		c7.2-45.5,18.2-90.1,34.1-133.4c6.9-18.8,15.4-37.1,23.6-55.4c2.6-5.9,6.7-11.2,9.4-17.2c-7.1,8.8-14.4,17.5-21.1,26.6
		c-33.4,45.3-55.2,96.1-69.7,150.2c-14,52.2-20.6,105.5-22.1,159.4c-0.3,8.9-0.4,17.7-0.5,26.6c-0.2,10-6.6,16.7-15.8,16.6
		c-8.8-0.1-15.5-7.1-15.2-16.9c0.9-25.2,1.8-50.4,3.4-75.5c1.9-28.7,6.3-57.1,12.3-85.2c12.8-60.1,33-117.3,65.8-169.6
		c22.3-35.6,49.3-67.1,83.7-91.7c8.8-6.3,18.5-11.4,28-16.6c3.3-1.8,7.5-2.6,11.3-2.8c12-0.7,20.9,11.1,17.3,22.6
		c-0.5,1.5-1.2,3.1-2.3,4.3c-42.1,45.6-68.6,99.7-86.7,158.4c-4,13-7.4,26.3-11.1,39.4C688.6,302.9,688.4,303.9,687.9,305.9z
		 M741.2,301.4c-1.1,0.5-1.4,0.6-1.7,0.8c-20.4,18.7-40.9,37.4-61.2,56.3c-1.2,1.1-1.9,3-2.2,4.6c-2.3,14.9-4.5,29.8-6.5,44.7
		c-0.8,5.9-1.3,11.9-1.9,17.8C690,383.1,713.9,341.8,741.2,301.4z"/>
	<path d="M699.1-52.7c6.9,8.5,11.7,17.9,13.9,28.5c3,14.5,1.7,28.6-5.2,41.7c-9.2,17.3-19.1,34.2-28.6,51.4
		c-11.3,20.2-21.4,40.9-29.7,62.7c-10.7,28.1-40.8,44.6-70.4,39.4c-0.7-0.1-1.5-0.2-2.6-0.4c-1.8,5.4-3.7,10.7-5.4,16.1
		c-13.7,43.2-23.4,87.2-29,132.1c-4.9,39.8-6.8,79.7-4.5,119.8c0.8,13.4,2.5,26.7,4,40c1,8.3-4.2,16.2-12.4,17.8
		c-8.3,1.6-16.6-3.3-18-11.8c-1.9-12-3.3-24.1-4.1-36.2c-2.8-44-1.2-87.8,4.1-131.6c6.5-53.5,18.4-105.8,35.9-156.8
		c0.8-2.3,0.7-3.8-1.3-5.6c-19.1-17.2-25.7-44.9-17.1-69.2c12-34,29.2-65.6,47.1-96.7c6.1-10.6,12.2-21.3,18.5-31.8
		c15.6-26.2,46.4-38,75.4-28.7c2.9,0.9,4.2,0.3,6-1.9c8.2-9.8,16.4-19.7,24.9-29.2c8-9,21.4-7.1,26.1,3.4c2.7,6,1.6,11.6-2.6,16.6
		c-7.6,9.1-15.3,18.3-22.9,27.4C700.5-54.6,699.8-53.7,699.1-52.7z M555.6,108c0.7,24.8,24.8,36,41.3,31.9c12.6-3.1,20-11.5,25-23.3
		c6.9-16.5,14.1-33,22.5-48.9c10.9-20.7,23-40.8,34.6-61.1c4.5-7.9,6.3-16.3,4-25.2c-3.8-14.6-14-22.5-28.4-25.1
		C641.5-46.1,629-40,621.8-28c-7.4,12.4-14.6,24.9-21.7,37.5c-15.8,27.9-31.1,56-41.6,86.3C557.1,99.8,556.5,104,555.6,108z"/>
</g>
</svg>
