<?xml version="1.0" encoding="utf-8"?>
<!-- Generator: Adobe Illustrator 19.0.0, SVG Export Plug-In . SVG Version: 6.00 Build 0)  -->
<svg version="1.1" id="Layer_1" xmlns="http://www.w3.org/2000/svg" xmlns:xlink="http://www.w3.org/1999/xlink" x="0px" y="0px"
	 viewBox="0 0 906.4 792" style="enable-background:new 0 0 906.4 792;" xml:space="preserve">
<g>
	<path d="M-2093.7-456.2c-0.2,3.2-0.5,6.1-0.6,9.1c-0.7,25-1.1,50-2.1,75c-0.3,7.2-1.4,14.6-3.3,21.6c-3.5,12.5-21,17.7-30.3,6.7
		c-5.9-6.9-10.9-14.7-15.2-22.8c-12.4-23.2-24.1-46.8-36.2-70.1c-5.8-11.1-5.9-11-18.4-10.9c-36.1,0.3-71.8-2.1-107.3-9.4
		c-14.3-2.9-28.2,1.6-40.5,9.5c-10.4,6.6-20.1,14.2-30.1,21.5c-13.5,9.9-27.4,18.9-44,22.9c-10,2.4-20,3.2-30.2,0.9
		c-16.4-3.7-26.6-15.3-28.5-31.9c-0.1-1.1-0.2-2.3-0.3-3.7c-7.7,3-14.9,6.1-22.4,8.6c-12.6,4.3-25.5,6.5-38.8,3.9
		c-24.1-4.9-37.8-25-34.3-49.4c3.3-22.8,14.8-41.3,30.4-57.3c9-9.2,19.3-17.3,29.5-25.3c8.5-6.7,18.2-5.2,23.7,2.7
		c5.4,7.6,3.5,17-5,23c-14.6,10.4-28.1,22.1-37.5,37.6c-3.8,6.3-6.8,13.4-8.7,20.5c-3.3,12.3,1.5,17.7,14.3,17.1
		c14.7-0.7,27.9-6.5,40.2-13.9c12.8-7.7,25-16.4,37.3-25c4.6-3.2,9.3-5.3,14.9-4c11.6,2.6,16.2,15.8,8.9,25.7
		c-4.5,6.2-9.5,12.1-13.4,18.6c-2.9,4.8-4.7,10.2-6.6,15.5c-1.3,3.6,0.4,5.6,4.3,6.2c9.7,1.5,18.8-0.9,26.8-5.8
		c11.8-7.2,23-15.3,34.2-23.4c11.9-8.6,23.8-17.2,37.9-21.8c16.2-5.2,32.5-7.2,49.6-3.5c34.7,7.5,70,9,105.4,7.5
		c12.5-0.5,22,3.1,28,14.1c10.6,19.4,20.9,39,31.3,58.6c0.7,1.3,1.4,2.7,2.6,5.2c0.2-2.5,0.4-3.8,0.5-5.2c0.6-17.5,1.1-35,1.9-52.4
		c0.2-3.8,1.2-7.5,1.8-11.3c1.5-9.3,8.2-13.9,16.2-15.5c12.7-2.6,25.6-3.9,38.5-5.7c9-1.2,16,2.9,21.4,9.5
		c6.3,7.7,12.4,15.7,17.9,24c8.7,13.2,16.8,26.8,25.2,40.2c0.7,1.2,1.6,2.3,3.2,3.2c-1.2-10.3-2.6-20.7-3.7-31
		c-1.6-15.4-3-30.8-4.5-46.2c-1.4-14.7,5.2-23.7,18.6-30c46-21.6,84.4-52.6,112.7-95.2c25.8-38.8,40.4-81.6,43.7-128
		c1.3-18.7-0.1-37.7,1.1-56.4c2.6-39.1,21.7-67.8,57.2-85.1c1-0.5,2.1-1,3.1-1.6c0.3-0.1,0.4-0.5,0.9-1.3
		c-7.2-5.8-14.4-11.6-21.1-16.9c-9.3,5.3-17.7,11-26.8,15.2c-16.7,7.5-34.3,11.8-52.7,11.7c-25.1-0.2-44.7-17.6-46.7-41.1
		c-1.5-18.2,9.4-36.2,26.6-45c21.4-11,42.3-7.1,63.2,1.3c7.5,3,14.7,6.8,22.9,10.5c-3-15.5-9-28.8-21.3-38.3
		c-11.6-9-25.2-12.7-39.6-13.5c-33.7-1.9-63.6,9.2-90.6,28.5c-32.3,23.1-54.1,54.3-68.2,91c-0.9,2.3-1.9,4.6-2.7,7
		c-1.9,6.4-6.3,10.1-12.5,12.6c-29.2,11.7-58.6,22.9-87.3,35.6c-102.3,45.2-190,109.8-259.6,198c-12.6,16-25.4,31.7-34.7,50
		c-1.3,2.5-2.2,5.2-3.2,7.8c-0.3,0.7-0.3,1.5-0.8,3.8c8-2.1,15.3-3.5,22.2-5.9c21.7-7.4,41.7-18.3,61.3-30.1
		c2.9-1.7,5.7-3.5,8.6-5.1c6.2-3.3,13.1-2.4,18.1,2.1c5.2,4.7,6.7,11.5,4,18.2c-3.2,8-6.6,16-9.8,24c-0.8,2.1-1.3,4.5-1.7,6.8
		c-1.7,9.8-0.9,10.6,8.9,8.5c15-3.3,28.3-10.7,41.1-18.7c18.3-11.4,35-25,50.6-39.8c4.2-3.9,8.8-6.7,14.8-5.8
		c11.9,1.7,17.7,14.3,11.2,24.7c-6.1,9.8-10.3,20.2-11.6,31.6c-1.7,14.5,2.5,18.7,16.9,15.6c10.8-2.3,21.9-5,31.9-9.6
		c55.4-25.2,106.5-57.2,150.8-99.3c16-15.2,29.8-32.4,38.6-53c6.2-14.7,9.1-29.7,3.4-45.2c-6.3-17.2-19.6-27.6-36.3-33.3
		c-9.3-3.2-19.4-4.3-29.1-6.3c-2.4-0.5-5-0.3-7.4-0.8c-7.7-1.4-13-8.2-12.8-16.1c0.2-7.9,6-14.8,13.9-15.1
		c36.3-1.2,83.7,16.1,100.8,57.9c8.2,20,7.5,40.3,1.1,60.6c-7.9,24.8-22.7,45.5-40.1,64.4c-22,23.9-47.5,43.8-74.5,61.8
		c-29.8,19.9-60.3,38.6-93.2,53c-14.2,6.2-28.8,11.4-44.3,13.1c-15.1,1.7-29.3-0.3-40.6-11.8c-6.6-6.7-9.6-15-10.7-24.2
		c-0.2-1.6-0.4-3.2-0.6-5.4c-5.3,3.5-10,6.8-14.9,9.8c-16.9,10.4-34.3,19.9-54.1,23.6c-9.3,1.7-18.6,1.7-27.4-2.4
		c-12.7-5.8-19.5-18.6-18.6-34.7c0.1-1.4,0.2-2.9,0.3-5.3c-2.9,1.4-5,2.5-7.2,3.6c-16.8,8.1-34,15.5-52.5,18.6
		c-10.8,1.8-21.7,2-31.3-4.7c-11-7.7-14.4-20.7-9.9-36.3c3.9-13.5,10.8-25.5,18.8-36.8c39.2-55.4,85.1-104.7,138.4-146.8
		c43.9-34.6,91.5-63.3,142.2-86.6c32-14.7,65-27.5,97.4-41.3c2.2-0.9,4.3-3.5,5.3-5.8c18.5-46.1,47-84.2,89.5-110.8
		c31-19.4,64.6-29.9,101.5-27.2c27.9,2,53,11.4,70.5,34.4c14.6,19.3,23,40.9,17.9,65.8c-0.5,2.7,0.3,4,2.4,5.8
		c14.9,12.3,29.6,24.8,44.3,37.3c5.6,4.7,7.9,10.8,5.8,17.9c-2.2,7.4-8,10.5-15.3,11.6c-18.5,3-34.7,10.4-47,24.9
		c-13.2,15.5-16.7,34.2-15.6,53.8c2.7,51.4-6.2,100.5-27.7,147.2c-23.1,50.2-58,90.3-103.8,120.9c-13,8.6-26.9,15.9-40.7,23.4
		c-3.5,1.9-3.7,4.1-3.3,7.2c2.1,18.5,4.3,37.1,6.3,55.6c1.9,17.2,3.6,34.4,5.2,51.7c0.4,4.3-0.1,8.7-0.6,12.9
		c-2,15.6-18.2,23-30.3,13.1c-7-5.6-12.8-13.2-17.7-20.7c-15.8-24.1-31.3-48.4-46.4-72.9c-5-8.2-10.2-13.2-20.5-9.3
		C-2085.1-456.3-2089.3-456.7-2093.7-456.2z M-1822.9-926.5c-13.6-7.2-26.5-13.8-41.5-14.7c-6.2-0.4-11.8,1.4-16.8,5.1
		c-5.4,4-7.7,9.5-6.1,14.7c1.9,6,6.8,8.6,12.6,8.9c5.1,0.3,10.3-0.2,15.3-1C-1846.8-915.6-1834.6-919.2-1822.9-926.5z"/>
</g>
<g>
	<path d="M2292.1-1423.5c-46.7,39.5-119.5,30.7-149.6-26.7c-3.3,2.8-6.6,5.5-9.8,8.2c-47.1,39.7-112.8,10.7-127.6-38.5
		c-8.8-29.1,0.2-53.8,20.7-74.9c6.3-6.5,15.9-6.3,22.1-0.5c6.3,5.9,6.6,15.3,0.7,22.5c-1.8,2.2-3.8,4.2-5.6,6.4
		c-12.1,15.4-12.5,33.5-1.2,49.5c18.6,26.4,54.2,29.5,78.5,6.4c5.4-5.1,10-11.1,14.6-17.1c4.3-5.6,9.6-8.9,16.7-7.5
		c7.3,1.4,11.1,6.4,13.2,13.4c2.1,7.3,4.2,14.9,7.8,21.5c11.9,21.6,31.6,29.9,55.1,29.3c21.3-0.5,39.3-8.5,52.6-26.2
		c7.3-9.7,19.8-8.2,27,2.9c9.9,15.3,22.6,27.5,38.9,35.8c17.6,8.9,36.1,12.7,55.6,8c26.2-6.3,40.6-24.3,46.8-49.4
		c12.7-52-3.4-94.8-43-129.6c-31.4-27.5-68.6-43.7-108.6-54c-46.5-11.9-93.7-14.1-141.4-10.5c-46.5,3.5-91.5,13.3-134.9,30.4
		c-64.2,25.3-121.1,62.2-169.3,111.6c-24.7,25.3-43.6,55-59.6,86.5c-27.8,54.8-44.8,112.8-50.7,173.9c-5,51.6-1.7,102.5,14.5,152.1
		c10.8,33,26.5,63.3,50.3,88.9c33.1,35.7,73.2,44.8,118.6,27.5c24.1-9.2,45.3-23.1,64.7-40c1.1-1,2.2-2,3.3-3
		c8.3-7.3,16.1-7.4,24.4,0.1c23.3,20.8,49.6,36.5,79.6,45.4c49.2,14.5,93.1,3.4,132.5-28.2c6.2-5,12.1-10.5,18-15.9
		c9.3-8.6,15.4-9,25.7-1.9c23.1,15.9,48.1,27.7,75.8,33.4c47.5,9.8,86.5-5.2,118.7-40.4c0.2-0.2,0.2-0.6,0.4-1.4
		c-74.5-9.6-139.2-40.4-194.4-90.8c-55.4-50.6-91.8-112.2-105.4-188.2c-0.6,1.2-1,2.4-1.7,3.4c-20.3,26.6-28.7,56.8-26.9,89.9
		c2.3,40.8,16.7,77.8,36.6,112.9c2.2,3.9,4.4,8.6,4.5,12.9c0.1,10.9-10.6,17.5-21.8,14.1c-26.7-8.1-50.7-21.2-71.7-39.5
		c-46.7-40.8-74-92.6-85.4-153.1c-4.7-24.7-5.4-49.6-3-74.7c0.1-1.4,0-2.9,0-6c-7.6,6.4-14.7,11.6-20.9,17.7
		c-27.6,26.8-41.6,60.2-45.7,98c-3.9,36,0.7,70.9,17.1,103.5c5.1,10.1,12.5,19.2,19.4,28.3c7.6,9.9,4.5,22.8-7,26.3
		c-7,2.1-12.6-0.5-17.5-5.6c-17.4-18.2-29-39.8-35.9-63.8c-14.9-51.5-13-102.5,7.7-152.1c19.1-45.7,51.6-78.1,98-96.4
		c6.3-2.5,12.1-2.1,17.3,2.4c5.1,4.4,6.7,10.2,4.9,16.7c-5.9,21.6-8.5,43.5-7.1,65.8c4.6,70.9,31.5,130.8,88,175.7
		c3.4,2.7,7.1,5,10.7,7.4c0.8,0.6,1.7,1,3.8,2.2c-1.1-2.7-1.8-4.3-2.5-5.8c-12.8-28.6-20.8-58.2-21.6-89.7
		c-1.4-56.4,18.9-103,62.9-138.8c5.3-4.3,11.1-5.3,17.3-2.4c6,2.8,9.1,7.8,9.2,14.3c1.2,63.9,25.8,118.7,66,167.1
		c40.7,49,91.3,84.2,151.8,104.9c27,9.2,54.7,14.2,83.2,14.7c1.2,0,2.3,0,3.5,0.1c12.6,0.9,19.9,13.9,12.9,24.4
		c-35.9,53.6-84.3,84.5-150.8,80.2c-33.4-2.2-64.3-13.5-92.8-31.3c-9.2-5.7-9-5.8-17.6,1.2c-23.2,19.1-49,33.2-78.3,40.5
		c-38.6,9.6-75.9,5.2-112.3-10.3c-19.7-8.4-38-19.2-54.3-33.2c-1-0.8-2.1-1.6-2.6-1.9c-11.7,8.2-22.6,16.7-34.3,23.8
		c-24.8,14.9-51.3,25.1-80.5,27.1c-31,2.2-58.9-6.3-84-24.3c-25.9-18.6-44.5-43.4-59.5-71c-22.8-41.7-35.1-86.6-38.3-133.9
		c-8-115.3,20.6-221.1,83.9-317.6c26.9-41,62.9-73.1,102.5-101.3c44.7-31.9,92.9-56.6,145.3-73c41.2-12.9,83.4-20.3,126.5-22.5
		c38.9-2,77.6-0.2,115.9,7.2c45.8,8.9,88.8,24.8,126.8,52.4c31.7,23.1,56.9,51.7,68.3,89.9c12.6,42.3,9.3,83.5-16.1,120.5
		c-22.3,32.4-54.5,44.6-93.2,38.6c-29.1-4.5-52.8-19.3-72.7-40.7C2294.8-1420.5,2293.6-1421.9,2292.1-1423.5z"/>
</g>
<g>
	<path d="M-2097,462.7c-3,0-5,0-7,0c-30.5-0.1-61,0.4-91.5-0.3c-37.5-0.9-74.3-6.1-109.9-18.6c-36.5-12.9-68.8-32.1-93.4-62.6
		c-30.6-38-41.8-81.6-36.2-129.6c4.8-41.4,21.3-77.5,50.7-107.3c34.5-35,76.2-52.8,125.7-50.8c2,0.1,4,0.1,6,0.1
		c0.3,0,0.6-0.2,1.4-0.4c1.2-6.5,2.2-13.2,3.6-19.8c13.1-61.6,45.8-109.4,100.4-141.4c37.2-21.8,78-29.9,120.8-29.4
		c33.2,0.4,65.7,5.1,96.9,17.1c46.6,17.9,83.4,47.4,107.5,91.6c3.4,6.3,6.2,13,8.4,19.7c1.6,4.7,3.6,5.5,8.3,4.3
		c30.5-7.8,61.1-7.4,91.4,0.9c51.3,14.1,88,46.3,113.3,92.3c18.7,34.2,28.9,70.7,28.2,109.9c-0.8,43-13.6,82.3-38.4,117.3
		c-39.1,54.9-93.1,86.8-158.3,100.8c-23.8,5.1-47.8,6.3-72.1,6.1c-11.2-0.1-22.3,0-33.5,0c-10.8-0.1-17-5.9-17.7-16.8
		c-1.7-25.6-8.6-50.1-14.4-75.7c-2.1,1.8-3.7,3.1-5.3,4.5c-19.3,16-38.2,32.3-54.2,51.7c-3.8,4.6-7.4,9.4-10.6,14.5
		c-11.7,18.8-7.9,42.5,8.9,57c16.6,14.3,41.6,14.5,58.3,0.4c1.5-1.3,3-2.6,4.6-3.9c6.9-5.4,15.9-4.7,21.7,1.5
		c5.8,6.2,5.7,15.7-0.6,22.1c-11.4,11.7-25.3,19.1-41.4,21.6c-50.8,7.9-93.3-31.2-89.8-82.5c1.3-19.6,10.6-35.8,23-50.5
		c19.1-22.6,41.7-41.7,64.1-60.9c6.6-5.6,13.2-11.2,19.9-16.8c11.4-9.5,24.8-5.4,27.8,9.2c6,29.8,11.4,59.8,17,89.7
		c0.1,0.8,0.3,1.6,0.5,2.9c11.4,0,22.7,0.1,34,0c49.3-0.3,95.3-12,136.6-39.6c41-27.3,69.8-64,82.7-112c10.1-37.4,7-74.2-7.3-110.1
		c-12.4-31-29.8-58.3-57.1-78.5c-30.5-22.5-64.7-31.1-102.2-27.3c-8.4,0.9-16.7,2.8-25.4,4.3c1,9,2.2,17.4,2.8,25.8
		c1.6,24.7-1.2,48.6-14.1,70.4c-12.2,20.4-35.7,31.2-58,26.7c-26.1-5.2-43.7-31.4-38.8-58.3c4.7-26.1,18.9-46.7,39.1-63.2
		c8.1-6.6,17.1-12.1,26-17.6c3.1-1.9,3.6-3.3,2.4-6.6c-15.4-42.4-44.8-72.1-85.3-89.8c-55.9-24.5-114.2-28-172.3-9.4
		c-61.8,19.8-98,64.5-114.3,126.3c-2.2,8.2-3.2,16.6-4.7,25.2c7,2.3,13.4,4.3,19.8,6.7c30,11.2,55.4,29.2,75.8,53.7
		c14.2,17.1,20.6,36.9,15,59.2c-6.4,25.6-30.3,41.3-56.5,37.6c-29.7-4.1-50.4-21.2-65.4-46c-12.3-20.3-17.8-42.9-20-66.3
		c-0.5-5.4-0.8-10.9-1.3-16.7c-14.6-1.1-28.9-0.5-42.8,3.1c-49,12.9-82.6,43.6-100,90.8c-14.5,39.2-14.4,78.8,4.3,117
		c14.7,30,38.8,50.8,68.1,65.9c28.4,14.5,58.8,21.9,90.3,25.7c36.4,4.5,72.9,2.6,109.4,3c12.3,0.1,24.7,0,37,0
		c8.8,0.1,14.8,4.5,16.7,12.9c9,39.5,15.9,79.4,16.3,120c0.2,20-3.2,39.1-14.9,56c-22.9,32.9-68.3,42.9-102.5,22.4
		c-35.2-21.1-47.9-65.9-29-102c10.2-19.4,25.5-34.5,41.3-49.1c6-5.6,15.7-4.7,21.4,1c6,6,6.4,15.2,0.5,21.7
		c-7.5,8.5-15.6,16.5-23,25c-4.2,4.9-8,10.3-11.3,15.8c-8.9,15.1-7.6,34.6,3.4,48.4c12.1,15.3,28.2,20.8,47.1,16.6
		c17.1-3.8,30.4-18.5,33-35.7c2.9-19.3,2.1-38.6-0.5-57.8C-2089.6,505.1-2093.5,484.3-2097,462.7z M-2217.9,130.5
		c-0.3,2-0.4,2.7-0.4,3.3c1.8,20.4,6,40.2,16.1,58.2c8.5,15.3,20.8,26.4,37.9,31.1c11.3,3.1,22-3.3,25.1-14.7
		c2.9-10.6-0.5-19.8-6.9-28c-11.3-14.7-25.3-26.5-41.5-35.5C-2197.1,139.6-2207.4,135.4-2217.9,130.5z M-1833,81.5
		c-14.2,8.5-26.5,18-34.7,31.6c-4.8,8-8.5,16.9-11.1,25.9c-2.9,10.1,2.2,17,12.4,19.8c11.8,3.2,22.7-2.8,28.3-16.4
		C-1830.1,122.9-1830.5,102.8-1833,81.5z"/>
</g>
<g>
	<path d="M8.9-1346.1c0,32.3,0,63.8,0,95.7c1.5,0.1,3,0.3,4.4,0.3c12.8,0,25.7,0,38.5,0c10.5,0,15.5,4,18.3,14
		c2.7,9.7,4.6,20,8.8,29c20.9,44.3,80.5,51.8,114.8,17.4c7.7-7.7,12-17.3,14.4-28.4c-14.7,0-28.9,0-43,0c-16.5,0.1-33-0.2-49.5,0.5
		c-15.3,0.6-23.3-5.7-22-22.4c1.6-21.4,7.7-40.7,24-55.4c34.3-30.9,101.8-26.8,120.2,34.9c3.1,10.3,3,10.3,13.9,10.3
		c3.3,0,6.7-0.1,10,0c8.2,0.2,13.9,4.6,16,12.5c1.1,4.3,1.7,8.8,2.8,13.2c11.9,47.2,55.6,68.6,101.3,49.6
		c19.3-8,30.8-21.9,34.5-43.3c-2,0-3.8,0-5.5,0c-30.2,0.1-60.3,0.2-90.5,0.4c-5,0-10-0.3-13.4-4.1c-2.3-2.6-5-6.2-5.1-9.3
		c-0.7-29.9,8.5-55.6,34.9-72.4c35.3-22.5,98.4-10.8,110.9,48.4c0.3,1.6,0.7,3.2,1.1,5.1c2.1,0,3.9,0,5.7,0c34.2,0,68.3,0,102.5,0
		c12.9,0,18.2,4.7,19.9,17.3c4.2,32.3,23.5,54.1,54,61.1c29.7,6.9,62.4-6.8,75.2-31.7c2.2-4.4,3.6-9.2,5.7-14.8c-2.8,0-4.6,0-6.3,0
		c-28.8,0-57.7,0-86.5,0c-12.5,0-18.8-6.4-18.3-18.9c1-24.1,8.2-45.5,27.3-61.5c27.2-22.9,71.7-20.3,95.9,5.7
		c9,9.7,13.1,21.8,16.1,34.4c2.3,9.8-0.2,8.2,9.8,8.2c14.2,0.1,28.3,0,42.5,0c9.8,0,16.7,6.8,16.7,16.6c0,19.3,0,38.7,0,58
		c0,1.6,0,3.2,0,5.1c33.7,0,67,0,100.8,0c-0.6-1.4-1.1-2.5-1.7-3.6c-30-55.9-60.1-111.7-90.1-167.6c-1.8-3.4-3.8-4.7-7.7-4.6
		c-15.2,0.3-30.3,0.1-45.5,0.1c-14,0-19.8-5.8-19.8-19.6c0-55.3,0-110.7,0-166c0-2,0-3.9,0-6.4c-2.4,0-4.4,0-6.3,0
		c-39.5,0-79,0-118.5,0c-14.3,0-21-7.8-18.2-21.7c9.7-49.3,19.7-98.6,29.4-147.9c1-4.9,1.5-9.9,1.6-14.8c0.2-13,0.1-25.9,0.1-39.3
		c-37.4,0-74.4,0-112,0c0,4.1,0.2,8.1,0,12c-1.5,24.3,2.4,48,7.4,71.7c8.5,39.9,16.1,79.9,24.1,119.9c2.2,10.9-4.8,19.5-16,19.9
		c-2.5,0.1-5,0-7.5,0c-92.2,0-184.3,0-276.5,0c-13.6,0-19.5-5.9-19.5-19.4c0-45.7,0-91.3,0-137c0-13.6,5.9-19.6,19.4-19.6
		c9.3,0,18.6,0,28.3,0c0-10.7,0-21.1,0-31.7c-90.3,0-180.6,0-271.3,0c0,10.3,0,20.7,0,31.7c1.9,0,3.9,0,5.8,0c44.8,0,89.7,0,134.5,0
		c13.3,0,19.3,6,19.3,19.1c0,61.7,0,123.3,0,185c0,14.2-5.7,19.9-20.1,19.9c-39.3,0-78.7,0-118,0c-1.8,0-3.6,0-5.9,0
		c0,2.3,0,4.1,0,5.8c0,18.5,0.2,37-0.1,55.5c-0.1,4-1.1,8.4-3,11.8c-3.4,5.9-9.4,8-16,6.6c-6.4-1.3-10.7-5.3-12.1-11.8
		c-0.5-2.4-0.7-4.9-0.7-7.4c0-24.5,0-49,0-73.5c0-12.9,6.1-19,18.9-19c39.5,0,79,0,118.5,0c2,0,3.9,0,6.2,0c0-53.4,0-106.4,0-160
		c-2.1,0-4,0-6,0c-44.8,0-89.7,0-134.5,0c-13.2,0-19.2-6-19.2-19.3c0-19.5,0-39,0-58.5c0-11.9,6.3-18.2,18.2-18.2
		c99.8,0,199.7,0,299.5,0c11.9,0,18.3,6.4,18.3,18.1c0,19.8,0,39.7,0,59.5c0,12.1-6.3,18.3-18.6,18.4c-9.6,0-19.2,0-29.1,0
		c0,37.4,0,74.3,0,111.6c83.9,0,167.8,0,252.1,0c-2.3-11.4-4.5-22.7-6.7-33.9c-7-35.2-14.1-70.5-21.1-105.7
		c-0.4-2.1-0.6-4.3-0.6-6.4c0-19.7,0-39.3,0-59c0-12.3,6.2-18.5,18.4-18.5c46.3,0,92.7,0,139,0c12.3,0,18.6,6.2,18.6,18.4
		c0,19.7,0.6,39.4-0.2,59c-0.5,10.7-3.2,21.3-5.3,31.9c-7.3,37.1-14.8,74.1-22.2,111.2c-0.2,1-0.2,2-0.3,3.5c2,0,3.7,0,5.5,0
		c38.3,0,76.7,0,115,0c13.6,0,19.6,5.9,19.6,19.4c0,55.5,0,111,0,166.5c0,1.8,0,3.6,0,5.9c1.9,0.1,3.5,0.2,5.1,0.2
		c13.2,0,26.3,0.2,39.5-0.1c9.1-0.2,15,3.6,19.2,11.5c26.9,50.3,54,100.6,81.1,150.9c9.2,17.1,18.6,34.2,27.6,51.5
		c1.9,3.7,3.3,8.2,3.1,12.3c-0.5,8.2-7.4,13.9-16.2,13.9c-47.7,0.1-95.3,0.1-143,0c-10,0-16.4-6.9-16.4-17.5
		c-0.1-18.8,0-37.7,0-56.5c0-1.8,0-3.6,0-6c-10.7,0-21-0.1-31.2,0.1c-0.9,0-2.5,1.9-2.7,3.1c-4.9,36.2-34.2,64.8-71.4,73.5
		c-30.8,7.2-59.6,2.4-85.5-16.4c-19.6-14.2-32.2-33.4-38.3-56.8c-0.2-0.8-0.4-1.6-0.7-2.4c-0.1-0.3-0.3-0.6-0.7-1.2
		c-5.4,0-11.1,0-16.7,0c-25.2,0-50.3,0.1-75.5-0.1c-4.5,0-6,1-6.9,5.7c-7,40.3-34.3,66.5-76.6,74.3
		c-56.5,10.4-105.1-20.1-120.2-75.7c-1.2-4.6-3.7-4-6.8-4.2c-3.7-0.3-3.8,2-4.3,4.6c-10.2,49.8-56.6,82.9-107.4,76.8
		c-44.2-5.4-77.2-33.5-89.3-76.7c-1-3.5-2.3-4.7-6-4.7c-14,0.2-28,0.1-42,0.1c-11.5,0-17.9-6.4-17.9-18c0-40.8,0-81.7,0-122.5
		c0-13.6,5.8-19.5,19.5-19.5c230.8,0,461.7,0,692.5,0c2.8,0,5.7-0.1,8.5,0.1c9.1,0.6,15.5,7.1,15.6,15.7c0.1,8.6-6.1,15.3-15.1,16.2
		c-2.2,0.2-4.3,0.1-6.5,0.1c-224.5,0-449,0-673.5,0C15-1346.1,12.2-1346.1,8.9-1346.1z M413.6-1250.2c-5.1-24.3-19.9-34.5-44.7-31.6
		c-18.6,2.2-30.3,14.6-29.9,31.6C363.8-1250.2,388.5-1250.2,413.6-1250.2z M205.1-1250.1c-0.5-2.1-1-3.5-1.1-5
		c-0.7-12.8-15.1-25.6-27-26.1c-7.1-0.3-14.4-0.6-21.3,0.8c-16.3,3.4-25.2,14.9-24.5,30.3C155.6-1250.1,180-1250.1,205.1-1250.1z
		 M637.1-1250.4c24.4,0,48.4,0,72.4,0c-4.6-22.3-17.7-32.4-39.9-31.6C651.6-1281.4,638.1-1270.3,637.1-1250.4z"/>
</g>
<g>
	<path d="M1444.2-1510.8c-9.6,11.8-18.1,22.4-26.9,32.9c-11.2,13.4-22.7,26.6-34,39.9c-4.5,5.3-10.1,7.9-16.8,6.4
		c-7-1.6-10.8-6.5-12.4-13.5c-6.3-26.9-13.7-53.4-24.8-78.8c-11-25.1-26.9-47-45-67.5c-0.2-0.2-0.6-0.3-2.1-0.9
		c-5.6,14-11.8,27.8-16.5,42c-11.4,34.1-14.4,69.3-11.2,105c2,21.9,6.5,43.4,12.2,64.7c2.9,10.6-3.5,20-14,20.9
		c-5.1,0.4-9.4-1.6-13.1-5.1c-31.5-29.3-59.2-61.8-82.3-98.1c-1.2-1.8-2.3-3.6-3.9-6.2c-2.3,2.4-4.4,4.4-6.2,6.6
		c-9.8,11.4-15,24.6-15.5,39.6c-0.3,9.7-7.4,16.7-16.5,16.4c-9.1-0.4-16-8-15.4-17.5c2.3-35.7,18-63.6,48.8-82.4
		c8.6-5.2,18-2.5,23.2,7.1c10.8,19.6,23.5,37.9,37.7,55.2c4.6,5.6,9.4,11.1,15,17.6c-0.9-10.2-1.9-19.1-2.5-28
		c-4.3-63.1,10-121.6,43.7-175.3c6.8-10.9,18.3-11.8,27.2-2.6c40.1,41.4,67.7,89.9,82.5,145.7c0.4,1.6,0.9,3.2,1.4,4.8
		c0,0.1,0.2,0.2,0.7,0.5c0.9-1,1.9-2,2.9-3c16.3-19.4,32.5-38.8,48.8-58.3c8.7-10.4,17.8-10.9,27.7-1.6c25.8,24,47.2,51,60.9,83.8
		c7.2,17.1,11.6,35,14,53.9c0.9-0.6,1.6-0.9,2.1-1.4c27.2-33,43.8-70.5,48.5-113c6.3-56.5-7.6-108.7-34.4-158
		c-16.5-30.4-37.5-57.4-62.1-81.7c-0.3-0.3-0.8-0.6-1.7-1.3c-1.9,3.1-3.7,6.2-5.5,9.3c-10,17-20.9,33.3-35.9,46.4
		c-31.2,27.2-69.1,23.7-94.9-8.7c-16-20.1-24.2-43.5-28.4-68.5c-6.3-37-3.3-73.7,5.4-110c0.6-2.4,1.2-4.8,2-8.2
		c-16.7,11-31.3,22.7-42.9,37.8c-18.3,23.8-29.2,51.2-36.2,79.9c-7.6,31-13.6,62.4-20.2,93.7c-3.7,17.4-7.9,34.7-15.5,51
		c-8.7,18.5-21.9,32.3-42.7,35.7c-32,5.3-64.2-6.9-79.6-42.7c-7.8-18.2-10.8-37.3-10.1-57.1c0.1-1.8,0-3.6,0-5.4
		c-0.5-0.4-1-0.8-1.6-1.3c-1.1,1.6-2,3.3-3.3,4.7c-44.8,48.4-71.9,105.6-84.2,170c-9.6,50.3-8.4,100.4,5,150
		c7.7,28.5,18.9,55.5,38.1,78.4c6,7.2,12.8,13.8,20,21.4c1.1-6.7,1.6-11.9,2.9-17c9.2-35.3,29.9-61.3,64.1-74.6
		c40.6-15.7,77.3,12,75.2,55.5c-1.1,21.9-7.3,41.9-22.8,58.2c-1.3,1.4-2.5,3-3.2,5.2c1.5-0.6,3-1.1,4.4-1.7
		c45.9-20.1,91.7-40.2,137.6-60.1c3.7-1.6,8-2.8,12-2.7c6.7,0.1,12.3,5.6,13.6,12c1.5,7.2-1.2,14.1-7.7,17.4
		c-8.6,4.3-17.5,8-26.4,11.9c-47.2,20.7-94.5,41.3-141.7,62c-0.4,0.2-0.9,0.4-1.9,1c1.3,0.8,2.3,1.6,3.4,2.1
		c37.2,16.6,74.4,33.3,111.7,49.8c1.9,0.8,4.6,1,6.5,0.3c44.3-17.2,88.6-34.6,132.8-52c0.4-0.2,0.8-0.4,1.7-0.9
		c-1.3-1.1-2.4-2-3.5-2.9c-20.5-15.2-35.1-34.4-40.3-59.9c-3.7-18.2-1.6-35.8,7.1-52.4c17.6-33.6,55.6-42.5,85.9-19.6
		c24.5,18.5,37.6,44.2,42.1,74c1.6,10.2,0.7,20.9-0.5,31.2c-1.2,10.8-7.4,19.8-14.9,28.3c10.6,4.1,20.6,7.9,30.5,11.9
		c10.9,4.5,21.9,8.9,32.5,14c23.3,11.2,33.5,31,32.9,55.9c-0.8,34.9-15.4,63.5-44.1,83.8c-19.8,14-41.7,15.9-64.1,6.8
		c-63.8-25.9-127.6-52-191.3-78.1c-6.1-2.5-11.2-3.5-17.8-0.6c-40.8,17.9-81.9,35.1-122.8,52.8c-19.8,8.6-39.5,17.6-59.3,26.3
		c-24.1,10.6-49.5,3.9-67-17.7c-14.4-17.7-21.6-38.4-24.8-60.7c-2.1-14.8-2.3-29.6,2.6-44c3.6-10.7,10.5-18.2,21-22.7
		c21.2-9.1,42.4-18.5,64.3-28c-3.7-3.1-7.3-5.5-9.9-8.6c-6.1-7.2-13.8-12.2-21.7-17.2c-31.8-20.1-54-48.6-70.2-82
		c-15.7-32.3-24.4-66.5-27.9-102.1c-8.1-82,6.7-159.5,46.1-232c21.2-38.9,49.2-72.4,84.4-99.6c7.7-6,14.1-7,20.6-3.2
		c6.5,3.8,8.6,10,7.3,19.7c-2.8,20.2-3.7,40.5-0.7,60.8c1.6,11.1,4.2,21.9,9.9,31.8c9.8,17.2,25.4,21.4,44.2,17.3
		c6.7-1.5,10.7-7.1,14-12.8c8.1-14,11.6-29.7,15-45.3c7.4-34,13.8-68.2,22.3-101.9c8.7-34.7,23.3-66.9,46-95
		c22.2-27.5,50.3-46.8,83.3-59.2c6.5-2.5,12.6-1.6,17.6,3.3c5.2,5.1,6.1,11.3,3.5,18c-7.1,17.6-12.8,35.7-16,54.5
		c-6.5,37.8-6.6,75.4,6.5,111.9c3.4,9.6,8.4,19,14.5,27.1c14.5,18.9,31.8,19.9,49.9,4.3c16.4-14.1,27.4-32.1,37.3-50.9
		c2.2-4.3,4.2-8.7,6.4-13c5.7-10.8,17.1-13.1,26.2-5c30,26.6,55.7,56.9,76.2,91.4c22.3,37.4,37.7,77.5,43.8,120.8
		c10.1,71.3-4.1,136.9-48.3,194.6c-9.5,12.4-21,23.2-31.9,34.4c-4.9,5.1-11.2,6.6-17.9,3.6c-6.6-3-9.5-8.3-9.6-15.5
		c-0.6-32.8-10.4-63.1-26.2-91.7c-9-16.3-20-31.1-32.6-44.7C1445.6-1507.8,1445.1-1509.1,1444.2-1510.8z M1322-1146.4
		c17.5,7.2,33.6,13.9,49.8,20.4c39.6,16.1,79.2,32.2,118.7,48.4c15.5,6.3,29.6,3.7,41.4-7.8c16.4-16,23.9-35.9,22.3-58.7
		c-0.7-10.2-5.4-18.3-15.6-22.4c-22.8-9.3-45.6-18.4-68.1-28.4c-9.6-4.3-18.2-3.9-27.6,0c-24.9,10.1-50,19.8-75,29.8
		C1353-1159.3,1338.2-1153.1,1322-1146.4z M1236.8-1147.6c-0.7-0.8-0.9-1.1-1.1-1.2c-37.8-16.9-75.6-33.8-113.5-50.5
		c-1.8-0.8-4.6-0.6-6.4,0.2c-26.7,11.5-53.4,23.3-80.1,34.8c-3.6,1.5-5.5,3.7-6.5,7.4c-3.2,11.3-1.8,22.5,0.4,33.6
		c3,15.1,8.6,29.1,19,40.6c8.7,9.6,15.6,10.9,27.3,6c1.1-0.5,2.1-1,3.2-1.4c32.7-14.5,65.3-29,98-43.4
		C1196.8-1130.3,1216.6-1138.8,1236.8-1147.6z M1163.7-1320.5c0.4-21.3-7.8-30.1-23.6-28.6c-3.4,0.3-6.9,1.3-10.1,2.6
		c-24.6,9.8-45.4,40.7-45.5,67.1c0,7.2,1,13.6,9.2,16.2c1.4,0.4,2.6,1.5,3.9,2.2c14.5,8,25.1,7.3,37.5-3.6
		C1153-1280.3,1162.2-1300.4,1163.7-1320.5z M1476.5-1268.9c-1-19.5-9.4-39.5-26.2-55.5c-4.6-4.4-10.9-8-17-9.7
		c-10-2.7-20.4,3.8-25.8,15.3c-9.4,19.8-5.7,38.3,7.1,55.2c10.5,14,25.3,22.3,41.4,28.4c1.4,0.5,3.6,0,5.1-0.7
		C1473.5-1241.7,1476.5-1252.7,1476.5-1268.9z"/>
</g>
<g>
	<path d="M-1249.5-1165.3c0-2.4,0-4.2,0-6c0-24,0-48,0-72c0-11.5,6.4-17.9,17.9-18c19.8,0,39.7,0,59.5,0c12.2,0,18.5,6.3,18.5,18.4
		c0,23.8,0,47.7,0,71.5c0,1.8,0,3.6,0,5.8c16,0,31.8,0,48,0c0-1.9,0-3.7,0-5.5c0.1-23.3,0.1-46.7,0.2-70
		c0.1-14.6,5.7-20.2,20.3-20.2c19,0,38,0,57,0c12.1,0,18.4,6.3,18.4,18.5c0,23.8,0,47.7,0,71.5c0,1.8,0,3.6,0,5.7
		c21.4,0,42.3,0,63.6,0c0-53,0-106,0-159.7c-1.7,0-3.5,0-5.3,0c-23.3,0-46.7,0-70,0c-14.8,0-20.3-5.6-20.3-20.6
		c0-23.2,0-46.3,0-69.5c0-1.8,0-3.6,0-5.6c-10.7,0-21,0-32,0c0,1.8,0,3.5,0,5.3c0,23.8,0,47.7,0,71.5c0,12.9-6.1,19-19,19
		c-24.8,0-49.7,0-74.5,0c-12.2,0-18.5-6.3-18.5-18.4c0-23.8,0-47.7,0-71.5c0-1.8,0-3.6,0-5.7c-10.7,0-21.1,0-32,0c0,2,0,3.7,0,5.5
		c0,23.7,0,47.3,0,71c0,13.2-6,19.1-19.3,19.1c-30,0-60,0-90,0c-12.5,0-18.7-6.2-18.7-18.7c0-51.5,0-103-0.1-154.5
		c0-6.6,2.2-11.8,7.1-16.3c58.4-53.6,116.7-107.4,175.2-161c20.5-18.8,47.4-18.6,68,0.3c58.3,53.5,116.5,107.2,174.8,160.7
		c4.9,4.5,7.1,9.7,7,16.3c-0.1,38-0.1,76-0.1,114c0,1.8,0,3.6,0,6.6c2.7-2.4,4.7-4.1,6.7-5.9c47.7-43.9,95.4-87.8,143.1-131.7
		c20.8-19.1,47.6-19.1,68.4,0c58.3,53.5,116.5,107.2,174.8,160.7c4.9,4.5,7.1,9.7,7.1,16.3c-0.1,126.2-0.1,252.3-0.1,378.5
		c0,12.6-6.1,18.7-18.7,18.8c-30.3,0-60.7,0-91,0c-11.9,0-18.3-6.3-18.3-18.1c0-24,0-48,0-72c0-1.8,0-3.6,0-5.6c-10.7,0-21,0-32,0
		c0,1.8,0,3.6,0,5.3c0,23.8,0,47.7,0,71.5c0,12.9-6.1,18.9-19,18.9c-24.8,0-49.7,0-74.5,0c-12.2,0-18.5-6.3-18.5-18.4
		c0-23.8,0-47.7,0-71.5c0-1.8,0-3.6,0-5.7c-10.7,0-21.1,0-32,0c0,2,0,3.8,0,5.6c0,23.8,0,47.7,0,71.5c0,12.5-6.2,18.6-18.8,18.6
		c-62.2,0-124.3,0-186.5,0c-12.5,0-18.7-6.2-18.7-18.8c0-25.5,0-51,0-76.9c-10.6,0-21,0-32,0c0,1.8,0,3.5,0,5.3
		c0,23.8,0,47.7,0,71.5c0,12.6-6.1,18.8-18.6,18.8c-25,0-50,0-75,0c-12.1,0-18.3-6.3-18.4-18.6c0-23.8,0-47.7,0-71.5
		c0-1.8,0-3.6,0-5.6c-10.7,0-21,0-32,0c0,1.7,0,3.5,0,5.2c0,23.8,0,47.7,0,71.5c0,12.9-6.1,19-18.9,19c-30.2,0-60.3,0-90.5,0
		c-12.2,0-18.5-6.2-18.6-18.4c0-62.5,0-125,0-187.5c0-11.8,6.4-18.1,18.3-18.1c23.8,0,47.7,0,71.5,0
		C-1253.9-1165.3-1252-1165.3-1249.5-1165.3z M-545.5-973.4c0-2.3,0-4.1,0-5.9c0-20,0-40,0-60c0-96.6,0-193.3-0.1-289.9
		c0-2.5-0.9-5.8-2.7-7.4c-56.2-51.9-112.4-103.7-168.7-155.5c-8.4-7.7-16.4-7.7-24.8-0.1c-56.1,51.5-112.1,103.1-168.2,154.6
		c-2.5,2.3-3.6,4.7-3.6,8.2c0.1,53,0.1,106,0.1,159c0,1.6,0.1,3.2,0.2,4.8c21.4,0,42.3,0,63.8,0c0-2,0-3.8,0-5.6c0-24,0-48,0-72
		c0-11.8,6.4-18.1,18.3-18.2c19.3,0,38.7,0,58,0c13.5,0,19.4,5.9,19.5,19.6c0.1,23.7,0.2,47.3,0.2,71c0,1.7,0,3.5,0,5.1
		c16.4,0,32,0,48,0c0-2.1,0-3.9,0-5.7c0-24.3,0-48.7,0-73c0-9.8,6.4-16.9,15.9-16.9c21.3-0.2,42.7-0.2,64,0
		c9.3,0.1,15.8,6.9,16.1,16.3c0.1,5.5,0,11,0,16.5c0,25.8,0,51.7,0,77.5c0,8.3-3.7,14.2-10.3,16.7c-11,4.2-21.6-3.7-21.7-16.5
		c-0.1-24.3,0-48.7,0-73c0-1.8,0-3.5,0-5.3c-11,0-21.2,0-32,0c0,2,0,3.8,0,5.6c0,23.8,0,47.7,0,71.5c0,12.5-6.2,18.6-18.8,18.6
		c-24.8,0-49.7,0-74.5,0c-12.5,0-18.7-6.2-18.7-18.7c-0.1-23.8-0.1-47.7-0.2-71.5c0-1.8,0-3.5,0-5.5c-10.9,0-21.1,0-31.8,0
		c0,2,0,3.8,0,5.6c0,23.2,0,46.3,0,69.5c0,15-5.5,20.6-20.4,20.6c-23.3,0-46.7,0-70,0c-1.8,0-3.5,0-5.6,0c0,2.5,0,4.3,0,6.1
		c0,21.5,0,43,0,64.5c0,13.5,0.1,27,0,40.5c-0.1,10.9-8.2,18.2-18.3,16.9c-8.3-1.1-13.6-8-13.6-18.1c0-34.7,0-69.3,0-104
		c0-1.8,0-3.6,0-5.8c-2.3,0-4.1,0-5.9,0c-23.8,0-47.7,0-71.5,0c-12.4,0-18.6-6.2-18.6-18.8c0-23.8,0-47.7,0-71.5c0-1.8,0-3.5,0-5.4
		c-10.9,0-21.1,0-31.8,0c0,1.7,0,3.2,0,4.6c-0.1,24-0.1,48-0.2,72c0,12.9-6.1,19.1-18.9,19.1c-24.8,0-49.7,0-74.5,0
		c-12.4,0-18.6-6.2-18.6-18.8c0-23.8,0-47.7,0-71.5c0-1.8,0-3.5,0-5.3c-11,0-21.4,0-32,0c0,25.9,0,51.4,0,76.8
		c0,12.6-6.2,18.7-18.7,18.8c-23.8,0-47.7,0-71.5,0c-1.8,0-3.6,0-5.5,0c0,53.6,0,106.6,0,159.8c21.3,0,42.2,0,63.6,0
		c0-2,0-3.8,0-5.6c0-24,0-48,0-72c0-11.8,6.4-18.1,18.3-18.2c19.7,0,39.3,0,59,0c12.5,0,18.7,6.2,18.7,18.7c0,23.8,0,47.7,0,71.5
		c0,1.8,0,3.6,0,5.4c16.3,0,32,0,48,0c0-2.2,0-4,0-5.8c0-23.8,0-47.7,0-71.5c0-12.2,6.3-18.4,18.6-18.4c19.7,0,39.3,0,59,0
		c12.2,0,18.4,6.3,18.4,18.5c0,24,0,48,0,72c0,1.8,0,3.5,0,5.2c53.7,0,106.6,0,160,0c0-2.1,0-3.8,0-5.6c0-23.8,0-47.7,0-71.5
		c0-12.3,6.2-18.6,18.4-18.6c19.7,0,39.3,0,59,0c12.5,0,18.6,6.2,18.6,18.8c0,23.8,0,47.7,0,71.5c0,1.8,0,3.5,0,5.3
		c16.3,0,32,0,48,0c0-26,0-51.7,0-77.3c0-11.9,6.3-18.3,18.1-18.3c19.8,0,39.7,0,59.5,0c12.1,0,18.3,6.3,18.3,18.6c0,24,0,48,0,72
		c0,1.7,0,3.5,0,5.3C-587.8-973.4-567-973.4-545.5-973.4z M-945.6-1357.5c0.1-1.3,0.2-1.9,0.2-2.6c0-43.5,0.1-87-0.1-130.5
		c0-2.2-1.6-5-3.3-6.6c-55.8-51.6-111.7-103-167.7-154.5c-9.1-8.3-16.8-8.3-25.9,0.1c-55.8,51.3-111.6,102.7-167.4,154
		c-2.5,2.3-3.7,4.6-3.7,8.1c0.1,42.2,0.1,84.3,0.1,126.5c0,1.8,0,3.5,0,5.3c21.7,0,42.7,0,64,0c0-25.9,0-51.3,0-76.8
		c0-12.6,6.1-18.8,18.6-18.8c19.3,0,38.7,0,58,0c13.5,0,19.4,5.9,19.4,19.6c0,23.7,0,47.3,0,71c0,1.7,0,3.5,0,5.1c16.4,0,32,0,48,0
		c0-2.1,0-3.9,0-5.7c0-23.8,0-47.7,0-71.5c0-12.3,6.2-18.5,18.5-18.5c19.5,0,39,0,58.5,0c12.9,0,19,6.1,19.1,18.9
		c0,23.8,0,47.7,0,71.5c0,1.8,0,3.5,0,5.4C-987.9-1357.5-966.9-1357.5-945.6-1357.5z"/>
</g>
<g>
	<path d="M-1761.5,681.9c-7.1-2-14.1-4.4-21.2-6c-27.6-6.1-55.7-8.2-83.8-9.8c-37.1-2.1-74.3-3.4-111.4-1.2
		c-41.5,2.4-82.6,7.1-122.4,20c-12.1,3.9-23.7,8.9-33.8,16.8c-6,4.7-6,6.6-0.1,11.5c10.4,8.9,22.8,14.4,35.5,19.1
		c29.5,11,60.2,16.8,91.3,20.7c43.9,5.4,88,6.8,132.2,5.7c45.8-1.1,91.5-4.9,136.8-12.4c32.4-5.3,64.5-11.9,95.3-23.6
		c11.5-4.4,22.3-10.3,33.3-15.8c3.4-1.7,6.4-4.3,9.2-6.8c11.8-10.3,12.9-20.7,3.3-33.2c-8.3-10.9-19.7-17.8-31.7-23.8
		c-26.7-13.4-55.2-21.2-84.4-27.1c-74.7-15.1-150.3-19.1-226.2-17.5c-51.5,1.1-102.8,5.3-153.6,14.4c-30.7,5.5-61,12.3-90,24.1
		c-14.4,5.8-28.2,12.7-40.2,22.8c-9.7,8.1-14.3,17.9-13.9,31c1.4,52.9,10.3,104.6,24.2,155.6c19.2,70.2,46,137.3,82.8,200.1
		c12.9,22.1,28.2,42.8,42.8,63.8c6.7,9.6,17.5,14.1,27.9,18.7c24,10.5,49.5,15.5,75.2,19.1c48.2,6.6,96.6,7.4,145.1,2.9
		c26.6-2.5,52.8-6.8,78.4-14.5c25.6-7.7,45.6-21.7,61.6-43.9c30-41.6,50.5-87.1,63.6-136.3c0.6-2.3,1.4-4.5,1.9-6.7
		c1.6-6.9,5.7-11.8,12.7-13.2c7.3-1.5,12.8,1.7,17.2,7.5c10.2,13.4,23.4,22.7,39.3,28.1c33.6,11.4,64.9-0.8,83.2-32.2
		c12.3-21.1,17.8-44.3,20.6-68.3c2-17.2,1.7-34.3-3.9-50.9c-7.2-21.2-20.8-36-43.7-39.8c-18.2-3-34.2,2.8-47,15.7
		c-21.9,22.2-31.3,48.6-24.5,79.8c0.5,2.3,1.3,4.5,2.2,6.6c4.5,11.3,11.5,19.3,24.5,20.7c7,0.8,11.5,5.2,13.2,12
		c1.5,6.3-0.5,11.9-5.6,16.1c-4.3,3.5-9.4,3.9-14.7,3.1c-15.1-2.3-27-9.9-36.4-21.7c-13-16.5-18.1-35.6-17.4-56.1
		c1.3-37.8,16.6-69,47.3-91.6c45.7-33.6,106.3-16.2,128.2,36.3c9.8,23.5,12.2,48,9.7,73c-3,28.8-10.4,56.3-25.6,81.2
		c-17.3,28.3-41.2,47.5-75,51.6c-27.5,3.3-52.4-4.4-74.9-20.4c-2.3-1.6-4.5-3.4-7.3-5.4c-2,5.9-3.9,11.4-5.8,16.9
		c-15.9,47.7-39,91.5-70.3,130.9c-12.8,16.2-29.9,25.7-48.7,32.7c-29.4,11-60,16.4-91,19.8c-34.8,3.9-69.8,4.8-104.8,3
		c-43.7-2.2-86.9-7.6-128.7-21.5c-24.5-8.1-44.2-21.8-59.6-43c-35.6-48.9-64-101.7-87.2-157.4c-23.3-55.9-40.9-113.6-51.6-173.3
		c-6.2-34.3-9.7-68.9-9.9-103.8c-0.1-20.2,9.1-35.8,23.5-48.9c17.8-16.2,39.3-26,61.7-34.1c38.9-14,79.3-21.5,120.1-27.1
		c48.8-6.7,97.8-9.6,147-9.7c75.8-0.2,151.2,4.7,225.3,21.8c33.2,7.7,65.6,17.7,94.5,36.6c11.4,7.5,21.5,16.5,28.6,28.2
		c16.2,26.5,11.8,52.5-12.2,72.6c-14.5,12.1-31.3,20.1-48.9,26.7c-41.4,15.5-84.5,23.8-128.1,29.7c-58.2,7.8-116.8,10.8-175.5,8.9
		c-47.4-1.5-94.5-5.7-140.7-16.7c-28.3-6.8-55.8-16-78.9-34.6c-10.5-8.4-18.3-18.5-17.8-33c0.5-12.8,7.4-22.2,16.7-30.1
		c12.3-10.4,27.1-16.2,42.1-21.3c30.4-10.2,61.9-15.6,93.7-19.1c56.7-6.2,113.5-4.4,170.2-0.7c27.4,1.8,54.9,4.3,81.4,11.8
		c10,2.8,19.9,6.8,28.8,12.1c12.2,7.1,17.1,19.6,14,30.9c-2.3,8.4-8.1,14.1-15.4,18.2c-12.8,7.2-27,10.3-41.3,12.7
		c-44.6,7.5-89.5,8.1-134.6,7.2c-18.8-0.4-37.6-1.3-56.4-2.2c-9.2-0.4-15.5-6.4-16.2-14.7c-0.7-7.7,4.4-15.1,12-16.7
		c3.2-0.7,6.6-0.5,9.9-0.3c43,2.5,85.9,3.3,128.9,0.8c23.6-1.4,47.2-3.5,70.1-9.9c1.7-0.5,3.3-1.1,5-1.7
		C-1761.6,682.8-1761.5,682.4-1761.5,681.9z"/>
</g>
<g>
	<path d="M504.4,597.7c3.7-9.2,6.8-17.9,10.7-26.2c3.9-8.2,8.7-16,12.9-23.7c-10.5-15.5-21.8-30.8-31.6-47
		c-16.7-27.8-32.5-56.2-48.6-84.4c-2.9-5.1-2.9-10.3-0.6-15.8c9.2-22.8,18.3-45.7,27.1-68.6c4.4-11.4,16.1-16.1,25-9.1
		c2.8,2.2,5.2,5.8,6.2,9.3c11.6,40.6,34.8,74.2,63.2,104.6c15.3,16.4,31.9,31.2,51.4,42.5c10.8,6.3,11.3,18.7,1.7,27.2
		c-14.3,12.5-28.4,25.2-42.6,37.8c-1.7,1.5-3.2,3.3-5,5.2c14.2,13.7,29.7,24.7,47.3,32.7c26.3,12,54.1,15.9,82.7,15.5
		c37.2-0.5,73-7.6,107.7-21c8.2-3.2,15.3-1.5,19.9,4.3c4.6,5.8,4.6,12.9-0.1,20.4c-29.8,46.7-67.6,85.6-113.5,116.6
		c-50.9,34.3-106.8,56-167.5,65c-38.6,5.8-77.3,5.9-116,0.6c-53.8-7.3-104.2-24.3-150.8-52C197.6,680.4,138,607.4,106.6,511.9
		c-12.1-36.9-17.7-75.1-17.9-114c0-7.3,2.2-13.2,9-16.4c6.1-2.9,12.4-2.4,17.1,2.4c2.6,2.6,4.8,6.6,5.2,10.3
		c1.2,10.1,1.1,20.3,1.9,30.4c3.4,45.7,15.6,89.1,36.4,129.9c34.1,67,84.4,118.4,150.1,154.8c42,23.2,86.9,37.5,134.5,43.4
		c52.5,6.5,104,2.5,154.6-13.2c59-18.3,110.2-49.7,153.8-93.4c7.6-7.6,14.8-15.7,21.5-24.5c-8.2,1.5-16.4,3.1-24.7,4.4
		c-37.1,5.9-74,6-110.4-4.3c-30.8-8.7-57.9-24.3-81.6-45.7c-1.2-1.1-2.5-2.2-3.7-3.3c-0.1-0.1-0.3,0-0.9-0.1
		c-6.8,9.7-11.9,20.6-15.3,32c-4.5,15-8.1,30.2-12,45.3c-0.6,2.2-1,4.6-1.8,6.7c-2.5,6.5-8.3,10.4-15.1,10.2
		c-6.9-0.1-13.4-4.4-14.9-11.2c-10.3-47.9-40-83-74.9-114.7c-12.7-11.5-26.3-22.1-39.7-32.8c-11.2-9-12-18.3-1.8-28.6
		c8.1-8.2,15.9-16.6,24.2-24.5c3.6-3.4,4.2-6.1,1.9-10.6c-12.4-24.5-21.2-50.2-26.9-77c-6.4-30.2-8-60.7-4.8-91.4
		c6-57.5,26.7-109.3,61.6-155.3C455.2,90,482.9,64.2,514.8,43c1.2-0.8,2.4-1.7,3.6-2.6c0.1-0.1,0.1-0.3,0.3-1.4
		c-9.9-0.8-19.7-2.4-29.6-2.4c-63.3,0.1-122.9,15.1-178.6,45.2c-32,17.3-60.8,39-86.4,64.9c-1.6,1.6-2.8,3.7-3.9,5.7
		c-17.5,33.7-37.5,65.8-64.2,93c-13.1,13.4-27.6,25.5-42,38.6c37.9,26,69.8,59.2,93.7,100.9c8.5-21.7,19.8-40.4,34-57.4
		c14-16.9,30.4-31.2,48.3-44.6c-4.1-3.8-8-7.3-11.8-11c-20.4-20.1-36.5-43.2-47.9-69.5c-3.6-8.1-1.2-16.4,5.5-20.8
		c6.4-4.2,15.3-3.1,20.4,2.8c1.7,2,2.9,4.5,3.9,6.9c12.9,31.1,32.8,56.6,60.3,76.1c14.2,10.1,13.8,22.2-1,31.5
		c-43.1,27.3-73,65-90,113.1c-1.8,5-2.9,10.2-4.5,15.3c-2.2,7.1-8,11.7-15,11.9c-6.8,0.2-13.5-4.2-15.5-11.2
		c-6.4-22.9-19.8-41.6-34.8-59.4c-23-27.3-50.3-50-79.3-70.7c-7.8-5.6-11.1-11.7-8.5-18.9c1.3-3.5,3.7-7.6,6.8-9.3
		c35.9-19.9,61.4-50.3,83.9-83.5c11.6-17.1,20.7-35.7,31.9-53c5.2-8,12.2-14.9,19.3-21.4C263.1,66.5,320.3,35.1,385,18
		C431.2,5.8,478.1,1.7,525.7,6.1c14.6,1.4,29.1,3.7,43.5,6c8.7,1.4,13.5,6.6,14.5,14.2c0.9,7-3,13.3-10.7,16.9
		c-42.9,19.8-79.6,47.8-109,84.9c-46.6,58.8-67.4,125.8-62.1,200.7c2.9,39.9,14.3,77.4,33.1,112.6c6.8,12.8,6.2,17.5-4.3,27.7
		c-7.7,7.6-15.9,14.7-24.3,22.5C445.1,523.1,480.4,554.8,504.4,597.7z M490.5,377.7c-2.1,5.2-3.2,9.4-5.4,13
		c-6.5,10.9-4.9,20.2,2,30.9c18.3,28.6,35.3,57.9,53,86.9c3.2,5.3,7.4,10.1,10.9,14.9c11.8-10,23-19.6,34.7-29.6
		C543.9,463.7,512.7,425.1,490.5,377.7z"/>
</g>
</svg>
