<?xml version="1.0" encoding="utf-8"?>
<!-- Generator: Adobe Illustrator 19.0.0, SVG Export Plug-In . SVG Version: 6.00 Build 0)  -->
<svg version="1.1" id="Layer_1" xmlns="http://www.w3.org/2000/svg" xmlns:xlink="http://www.w3.org/1999/xlink" x="0px" y="0px"
	 viewBox="-26 -116 906.4 792" style="enable-background:new -26 -116 906.4 792;" xml:space="preserve">
<g>
	<path d="M478.4,481.7c3.7-9.2,6.8-17.9,10.7-26.2c3.9-8.2,8.7-16,12.9-23.7c-10.5-15.5-21.8-30.8-31.6-47
		c-16.7-27.8-32.5-56.2-48.6-84.4c-2.9-5.1-2.9-10.3-0.6-15.8c9.2-22.8,18.3-45.7,27.1-68.6c4.4-11.4,16.1-16.1,25-9.1
		c2.8,2.2,5.2,5.8,6.2,9.3c11.6,40.6,34.8,74.2,63.2,104.6c15.3,16.4,31.9,31.2,51.4,42.5c10.8,6.3,11.3,18.7,1.7,27.2
		c-14.3,12.5-28.4,25.2-42.6,37.8c-1.7,1.5-3.2,3.3-5,5.2c14.2,13.7,29.7,24.7,47.3,32.7c26.3,12,54.1,15.9,82.7,15.5
		c37.2-0.5,73-7.6,107.7-21c8.2-3.2,15.3-1.5,19.9,4.3c4.6,5.8,4.6,12.9-0.1,20.4C775.9,532.1,738.1,571,692.2,602
		c-50.9,34.3-106.8,56-167.5,65c-38.6,5.8-77.3,5.9-116,0.6c-53.8-7.3-104.2-24.3-150.8-52C171.6,564.4,112,491.4,80.6,395.9
		c-12.1-36.9-17.7-75.1-17.9-114c0-7.3,2.2-13.2,9-16.4c6.1-2.9,12.4-2.4,17.1,2.4c2.6,2.6,4.8,6.6,5.2,10.3
		c1.2,10.1,1.1,20.3,1.9,30.4c3.4,45.7,15.6,89.1,36.4,129.9c34.1,67,84.4,118.4,150.1,154.8c42,23.2,86.9,37.5,134.5,43.4
		c52.5,6.5,104,2.5,154.6-13.2c59-18.3,110.2-49.7,153.8-93.4c7.6-7.6,14.8-15.7,21.5-24.5c-8.2,1.5-16.4,3.1-24.7,4.4
		c-37.1,5.9-74,6-110.4-4.3c-30.8-8.7-57.9-24.3-81.6-45.7c-1.2-1.1-2.5-2.2-3.7-3.3c-0.1-0.1-0.3,0-0.9-0.1
		c-6.8,9.7-11.9,20.6-15.3,32c-4.5,15-8.1,30.2-12,45.3c-0.6,2.2-1,4.6-1.8,6.7c-2.5,6.5-8.3,10.4-15.1,10.2
		c-6.9-0.1-13.4-4.4-14.9-11.2c-10.3-47.9-40-83-74.9-114.7c-12.7-11.5-26.3-22.1-39.7-32.8c-11.2-9-12-18.3-1.8-28.6
		c8.1-8.2,15.9-16.6,24.2-24.5c3.6-3.4,4.2-6.1,1.9-10.6c-12.4-24.5-21.2-50.2-26.9-77c-6.4-30.2-8-60.7-4.8-91.4
		c6-57.5,26.7-109.3,61.6-155.3C429.2-26,456.9-51.8,488.8-73c1.2-0.8,2.4-1.7,3.6-2.6c0.1-0.1,0.1-0.3,0.3-1.4
		c-9.9-0.8-19.7-2.4-29.6-2.4c-63.3,0.1-122.9,15.1-178.6,45.2c-32,17.3-60.8,39-86.4,64.9c-1.6,1.6-2.8,3.7-3.9,5.7
		c-17.5,33.7-37.5,65.8-64.2,93c-13.1,13.4-27.6,25.5-42,38.6c37.9,26,69.8,59.2,93.7,100.9c8.5-21.7,19.8-40.4,34-57.4
		c14-16.9,30.4-31.2,48.3-44.6c-4.1-3.8-8-7.3-11.8-11c-20.4-20.1-36.5-43.2-47.9-69.5c-3.6-8.1-1.2-16.4,5.5-20.8
		c6.4-4.2,15.3-3.1,20.4,2.8c1.7,2,2.9,4.5,3.9,6.9c12.9,31.1,32.8,56.6,60.3,76.1c14.2,10.1,13.8,22.2-1,31.5
		c-43.1,27.3-73,65-90,113.1c-1.8,5-2.9,10.2-4.5,15.3c-2.2,7.1-8,11.7-15,11.9c-6.8,0.2-13.5-4.2-15.5-11.2
		c-6.4-22.9-19.8-41.6-34.8-59.4c-23-27.3-50.3-50-79.3-70.7c-7.8-5.6-11.1-11.7-8.5-18.9c1.3-3.5,3.7-7.6,6.8-9.3
		c35.9-19.9,61.4-50.3,83.9-83.5c11.6-17.1,20.7-35.7,31.9-53c5.2-8,12.2-14.9,19.3-21.4C237.1-49.5,294.3-80.9,359-98
		c46.2-12.2,93.1-16.3,140.7-11.9c14.6,1.4,29.1,3.7,43.5,6c8.7,1.4,13.5,6.6,14.5,14.2c0.9,7-3,13.3-10.7,16.9
		C504.1-53,467.4-25,438,12.1c-46.6,58.8-67.4,125.8-62.1,200.7c2.9,39.9,14.3,77.4,33.1,112.6c6.8,12.8,6.2,17.5-4.3,27.7
		c-7.7,7.6-15.9,14.7-24.3,22.5C419.1,407.1,454.4,438.8,478.4,481.7z M464.5,261.7c-2.1,5.2-3.2,9.4-5.4,13
		c-6.5,10.9-4.9,20.2,2,30.9c18.3,28.6,35.3,57.9,53,86.9c3.2,5.3,7.4,10.1,10.9,14.9c11.8-10,23-19.6,34.7-29.6
		C517.9,347.7,486.7,309.1,464.5,261.7z"/>
</g>
</svg>
