<?xml version="1.0" encoding="utf-8"?>
<!-- Generator: Adobe Illustrator 19.0.0, SVG Export Plug-In . SVG Version: 6.00 Build 0)  -->
<svg version="1.1" id="Layer_1" xmlns="http://www.w3.org/2000/svg" xmlns:xlink="http://www.w3.org/1999/xlink" x="0px" y="0px"
	 viewBox="-26 -116 906.4 792" style="enable-background:new -26 -116 906.4 792;" xml:space="preserve">
<g>
	<path d="M9.4,389.1c0,29.6,0,58.5,0,87.7c1.4,0.1,2.7,0.3,4,0.3c11.8,0,23.5,0,35.3,0c9.6,0,14.2,3.7,16.8,12.9
		c2.5,8.9,4.2,18.3,8.1,26.6c19.2,40.6,73.8,47.5,105.3,16c7-7,11-15.9,13.2-26.1c-13.5,0-26.5,0-39.4,0
		c-15.1,0.1-30.3-0.2-45.4,0.4c-14,0.5-21.4-5.2-20.2-20.5c1.5-19.6,7.1-37.3,22-50.8c31.4-28.4,93.3-24.6,110.2,32
		c2.8,9.4,2.8,9.5,12.8,9.5c3.1,0,6.1-0.1,9.2,0c7.5,0.2,12.8,4.2,14.7,11.4c1,4,1.6,8.1,2.6,12.1c10.9,43.3,51,62.8,92.9,45.5
		c17.7-7.3,28.3-20.1,31.6-39.7c-1.9,0-3.4,0-5,0c-27.7,0.1-55.3,0.2-83,0.3c-4.5,0-9.1-0.2-12.3-3.8c-2.1-2.4-4.6-5.6-4.6-8.6
		c-0.6-27.5,7.8-51,32-66.4c32.4-20.6,90.2-9.9,101.6,44.3c0.3,1.5,0.6,2.9,1,4.7c1.9,0,3.5,0,5.2,0c31.3,0,62.6,0,94,0
		c11.8,0,16.7,4.3,18.2,15.9c3.9,29.6,21.5,49.6,49.5,56c27.2,6.3,57.2-6.2,68.9-29c2.1-4,3.3-8.4,5.3-13.5c-2.6,0-4.2,0-5.8,0
		c-26.4,0-52.9,0-79.3,0c-11.5,0-17.3-5.9-16.8-17.3c0.9-22.1,7.6-41.7,25-56.4c24.9-21,65.7-18.6,87.9,5.3c8.3,8.9,12,20,14.8,31.6
		c2.1,9-0.2,7.5,9,7.6c13,0.1,26,0,39,0c9,0,15.3,6.3,15.3,15.2c0,17.7,0,35.4,0,53.2c0,1.5,0,3,0,4.7c30.9,0,61.4,0,92.4,0
		c-0.6-1.3-1-2.3-1.6-3.3C806,495.6,778.4,444.4,751,393.2c-1.7-3.1-3.5-4.3-7-4.2c-13.9,0.2-27.8,0.1-41.7,0.1
		c-12.8,0-18.2-5.3-18.2-18c0-50.7,0-101.4,0-152.2c0-1.8,0-3.6,0-5.8c-2.2,0-4,0-5.8,0c-36.2,0-72.4,0-108.6,0
		c-13.1,0-19.2-7.2-16.7-19.9c8.9-45.2,18-90.4,27-135.5c0.9-4.5,1.4-9.1,1.4-13.6c0.2-11.9,0.1-23.8,0.1-36c-34.3,0-68.2,0-102.7,0
		c0,3.8,0.2,7.4,0,11c-1.4,22.3,2.2,44,6.8,65.8c7.8,36.6,14.8,73.3,22.1,110c2,10-4.4,17.9-14.6,18.3c-2.3,0.1-4.6,0-6.9,0
		c-84.5,0-169,0-253.5,0c-12.5,0-17.9-5.4-17.9-17.8c0-41.9,0-83.7,0-125.6c0-12.5,5.4-17.9,17.8-17.9c8.5,0,17.1,0,25.9,0
		c0-9.8,0-19.3,0-29.1c-82.8,0-165.6,0-248.7,0c0,9.5,0,19,0,29.1c1.8,0,3.5,0,5.3,0c41.1,0,82.2,0,123.3,0
		c12.1,0,17.7,5.5,17.7,17.5c0,56.5,0,113.1,0,169.6c0,13-5.2,18.2-18.4,18.2c-36.1,0-72.1,0-108.2,0c-1.6,0-3.3,0-5.4,0
		c0,2.1,0,3.7,0,5.4c0,17,0.2,33.9-0.1,50.9c-0.1,3.6-1,7.7-2.8,10.8c-3.1,5.4-8.6,7.3-14.7,6.1c-5.9-1.2-9.8-4.9-11.1-10.8
		c-0.5-2.2-0.6-4.5-0.6-6.8c0-22.5,0-44.9,0-67.4c0-11.9,5.6-17.4,17.3-17.4c36.2,0,72.4,0,108.6,0c1.8,0,3.6,0,5.7,0
		c0-48.9,0-97.6,0-146.7c-1.9,0-3.7,0-5.5,0c-41.1,0-82.2,0-123.3,0c-12.1,0-17.6-5.5-17.6-17.7c0-17.9,0-35.8,0-53.6
		C-20-0.9-14.2-6.7-3.3-6.7c91.5,0,183,0,274.6,0c10.9,0,16.8,5.8,16.8,16.6c0,18.2,0,36.4,0,54.5c0,11.1-5.8,16.8-17,16.8
		c-8.8,0-17.6,0-26.7,0c0,34.3,0,68.1,0,102.3c76.9,0,153.8,0,231.1,0c-2.1-10.5-4.1-20.8-6.1-31.1c-6.4-32.3-12.9-64.6-19.3-96.9
		c-0.4-1.9-0.6-3.9-0.6-5.9c0-18,0-36.1,0-54.1c0-11.3,5.7-17,16.9-17c42.5,0,84.9,0,127.4,0c11.2,0,17,5.7,17,16.8
		c0,18,0.6,36.1-0.2,54.1c-0.4,9.8-3,19.6-4.9,29.3c-6.7,34-13.6,67.9-20.4,101.9c-0.2,0.9-0.2,1.8-0.3,3.2c1.8,0,3.4,0,5.1,0
		c35.1,0,70.3,0,105.4,0c12.5,0,17.9,5.4,17.9,17.8c0,50.9,0,101.8,0,152.6c0,1.7,0,3.3,0,5.4c1.7,0.1,3.2,0.2,4.7,0.2
		c12.1,0,24.1,0.2,36.2-0.1c8.3-0.2,13.7,3.3,17.6,10.6c24.7,46.1,49.5,92.2,74.4,138.3c8.5,15.7,17.1,31.4,25.3,47.2
		c1.7,3.4,3.1,7.5,2.8,11.2c-0.5,7.6-6.8,12.7-14.8,12.8c-43.7,0.1-87.4,0.1-131.1,0c-9.2,0-15-6.3-15.1-16c-0.1-17.3,0-34.5,0-51.8
		c0-1.6,0-3.3,0-5.5c-9.8,0-19.2-0.1-28.6,0.1c-0.9,0-2.3,1.8-2.4,2.9c-4.5,33.2-31.4,59.4-65.5,67.4c-28.2,6.6-54.7,2.2-78.3-15
		c-18-13-29.5-30.6-35.1-52.1c-0.2-0.7-0.4-1.5-0.6-2.2c-0.1-0.3-0.3-0.5-0.6-1.1c-5,0-10.2,0-15.3,0c-23.1,0-46.1,0.1-69.2-0.1
		c-4.1,0-5.5,0.9-6.3,5.3c-6.4,36.9-31.4,61-70.2,68.1c-51.8,9.5-96.4-18.5-110.1-69.4c-1.1-4.2-3.4-3.6-6.3-3.9
		c-3.4-0.3-3.4,1.8-3.9,4.2c-9.3,45.6-51.9,76-98.5,70.4c-40.5-4.9-70.7-30.8-81.9-70.3c-0.9-3.2-2.1-4.4-5.5-4.3
		c-12.8,0.2-25.7,0.1-38.5,0.1c-10.6,0-16.4-5.9-16.4-16.5c0-37.4,0-74.9,0-112.3c0-12.5,5.4-17.9,17.8-17.9
		c211.6,0,423.2,0,634.8,0c2.6,0,5.2-0.1,7.8,0.1c8.3,0.5,14.2,6.5,14.3,14.4s-5.6,14-13.9,14.8c-2,0.2-4,0.1-6,0.1
		c-205.8,0-411.6,0-617.4,0C15,389.1,12.4,389.1,9.4,389.1z M380.4,476.9c-4.7-22.3-18.2-31.7-41-28.9c-17.1,2-27.8,13.4-27.4,28.9
		C334.7,476.9,357.4,476.9,380.4,476.9z M189.3,477c-0.4-1.9-0.9-3.2-1-4.6c-0.6-11.7-13.8-23.5-24.8-23.9
		c-6.5-0.3-13.2-0.6-19.5,0.7c-14.9,3.1-23.1,13.6-22.5,27.8C143.9,477,166.3,477,189.3,477z M585.3,476.7c22.3,0,44.3,0,66.4,0
		c-4.2-20.4-16.2-29.7-36.5-29C598.6,448.4,586.2,458.5,585.3,476.7z"/>
</g>
</svg>
