<?xml version="1.0" encoding="utf-8"?>
<!-- Generator: Adobe Illustrator 19.0.0, SVG Export Plug-In . SVG Version: 6.00 Build 0)  -->
<svg version="1.1" id="Layer_1" xmlns="http://www.w3.org/2000/svg" xmlns:xlink="http://www.w3.org/1999/xlink" x="0px" y="0px"
	 viewBox="-26 -116 906.4 792" style="enable-background:new -26 -116 906.4 792;" xml:space="preserve">
<g>
	<path d="M607.1,172c-46.7,39.5-119.5,30.7-149.6-26.7c-3.3,2.8-6.6,5.5-9.8,8.2c-47.1,39.7-112.8,10.7-127.6-38.5
		c-8.8-29.1,0.2-53.8,20.7-74.9c6.3-6.5,15.9-6.3,22.1-0.5c6.3,5.9,6.6,15.3,0.7,22.5c-1.8,2.2-3.8,4.2-5.6,6.4
		c-12.1,15.4-12.5,33.5-1.2,49.5c18.6,26.4,54.2,29.5,78.5,6.4c5.4-5.1,10-11.1,14.6-17.1c4.3-5.6,9.6-8.9,16.7-7.5
		c7.3,1.4,11.1,6.4,13.2,13.4c2.1,7.3,4.2,14.9,7.8,21.5c11.9,21.6,31.6,29.9,55.1,29.3c21.3-0.5,39.3-8.5,52.6-26.2
		c7.3-9.7,19.8-8.2,27,2.9c9.9,15.3,22.6,27.5,38.9,35.8c17.6,8.9,36.1,12.7,55.6,8c26.2-6.3,40.6-24.3,46.8-49.4
		c12.7-52-3.4-94.8-43-129.6C689.2-22,652-38.2,612-48.5C565.5-60.4,518.3-62.6,470.6-59c-46.5,3.5-91.5,13.3-134.9,30.4
		C271.5-3.3,214.6,33.6,166.4,83c-24.7,25.3-43.6,55-59.6,86.5C79,224.3,62,282.3,56.1,343.4c-5,51.6-1.7,102.5,14.5,152.1
		c10.8,33,26.5,63.3,50.3,88.9c33.1,35.7,73.2,44.8,118.6,27.5c24.1-9.2,45.3-23.1,64.7-40c1.1-1,2.2-2,3.3-3
		c8.3-7.3,16.1-7.4,24.4,0.1c23.3,20.8,49.6,36.5,79.6,45.4c49.2,14.5,93.1,3.4,132.5-28.2c6.2-5,12.1-10.5,18-15.9
		c9.3-8.6,15.4-9,25.7-1.9c23.1,15.9,48.1,27.7,75.8,33.4c47.5,9.8,86.5-5.2,118.7-40.4c0.2-0.2,0.2-0.6,0.4-1.4
		c-74.5-9.6-139.2-40.4-194.4-90.8c-55.2-50.4-91.6-112-105.2-188c-0.6,1.2-1,2.4-1.7,3.4c-20.3,26.6-28.7,56.8-26.9,89.9
		c2.3,40.8,16.7,77.8,36.6,112.9c2.2,3.9,4.4,8.6,4.5,12.9c0.1,10.9-10.6,17.5-21.8,14.1c-26.7-8.1-50.7-21.2-71.7-39.5
		c-46.7-40.8-74-92.6-85.4-153.1c-4.7-24.7-5.4-49.6-3-74.7c0.1-1.4,0-2.9,0-6c-7.6,6.4-14.7,11.6-20.9,17.7
		c-27.6,26.8-41.6,60.2-45.7,98c-3.9,36,0.7,70.9,17.1,103.5c5.1,10.1,12.5,19.2,19.4,28.3c7.6,9.9,4.5,22.8-7,26.3
		c-7,2.1-12.6-0.5-17.5-5.6c-17.4-18.2-29-39.8-35.9-63.8c-14.9-51.5-13-102.5,7.7-152.1c19.1-45.7,51.6-78.1,98-96.4
		c6.3-2.5,12.1-2.1,17.3,2.4c5.1,4.4,6.7,10.2,4.9,16.7c-5.9,21.6-8.5,43.5-7.1,65.8c4.6,70.9,31.5,130.8,88,175.7
		c3.4,2.7,7.1,5,10.7,7.4c0.8,0.6,1.7,1,3.8,2.2c-1.1-2.7-1.8-4.3-2.5-5.8c-12.8-28.6-20.8-58.2-21.6-89.7
		c-1.4-56.4,18.9-103,62.9-138.8c5.3-4.3,11.1-5.3,17.3-2.4c6,2.8,9.1,7.8,9.2,14.3c1.2,63.9,25.8,118.7,66,167.1
		c40.7,49,91.3,84.2,151.8,104.9c27,9.2,54.7,14.2,83.2,14.7c1.2,0,2.3,0,3.5,0.1c12.6,0.9,19.9,13.9,12.9,24.4
		c-35.9,53.6-84.3,84.5-150.8,80.2c-33.4-2.2-64.3-13.5-92.8-31.3c-9.2-5.7-9-5.8-17.6,1.2c-23.2,19.1-49,33.2-78.3,40.5
		c-38.6,9.6-75.9,5.2-112.3-10.3c-19.7-8.4-38-19.2-54.3-33.2c-1-0.8-2.1-1.6-2.6-1.9c-11.7,8.2-22.6,16.7-34.3,23.8
		c-24.8,14.9-51.3,25.1-80.5,27.1c-31,2.2-58.9-6.3-84-24.3c-25.9-18.6-44.5-43.4-59.5-71c-22.7-41.9-35-86.8-38.3-134
		c-8-115.3,20.6-221.1,83.9-317.6c26.9-41,62.9-73.1,102.5-101.3c44.7-31.9,92.9-56.6,145.3-73C396.7-82,438.9-89.4,482-91.6
		c38.9-2,77.6-0.2,115.9,7.2c45.8,8.9,88.8,24.8,126.8,52.4c31.7,23.1,56.9,51.7,68.3,89.9c12.6,42.3,9.3,83.5-16.1,120.5
		c-22.3,32.4-54.5,44.6-93.2,38.6c-29.1-4.5-52.8-19.3-72.7-40.7C609.8,175,608.6,173.6,607.1,172z"/>
</g>
</svg>
