<?xml version="1.0" encoding="utf-8"?>
<!-- Generator: Adobe Illustrator 19.0.0, SVG Export Plug-In . SVG Version: 6.00 Build 0)  -->
<svg version="1.1" id="Layer_1" xmlns="http://www.w3.org/2000/svg" xmlns:xlink="http://www.w3.org/1999/xlink" x="0px" y="0px"
	 viewBox="-26 -116 906.4 792" style="enable-background:new -26 -116 906.4 792;" xml:space="preserve">
<g>
	<path d="M862.4,336.3c-0.9,1.9-1.7,3.9-2.8,5.6c-4,6.4-11.6,9.4-18.7,7.6c-7.5-1.9-12.6-8-13.2-15.8c-0.1-0.7-0.1-1.4-0.1-2.1
		c0-34.4,0-68.7,0-103.1c0-8.8,4.3-14.8,12.1-17.5c8.5-3,17.5,1.1,21.1,9.3c0.4,1,1.1,1.9,1.6,2.9
		C862.4,260.9,862.4,298.6,862.4,336.3z"/>
	<path d="M201,279.9c0-103.5,0-207.1,0-310.6c0-10.5,4-16.7,12.3-19.5c9.5-3.1,19.7,2.7,21.8,12.6c0.5,2.2,0.6,4.5,0.6,6.7
		c0,207.2,0,414.5,0,621.7c0,10.5-4.4,17.3-12.8,19.6c-10.7,3-21.4-4.6-21.9-15.7c-0.2-3.4-0.1-6.8-0.1-10.2
		C201,483,201,381.5,201,279.9z"/>
	<path d="M653.4,279.7c0,103.4,0,206.8,0,310.2c0,2.8,0,5.7-0.7,8.4c-2.1,8.2-9.4,13.2-17.8,12.7c-8.2-0.5-14.5-6.3-15.8-14.6
		c-0.3-2.1-0.4-4.2-0.4-6.3c0-206.4,0-412.8,0-619.2c0-2.8,0.1-5.7,0.6-8.5c1.5-8.1,10-14.4,18.1-13.7c8.5,0.7,15.4,7.6,16,16
		c0.1,1.7,0.1,3.4,0.1,5.1C653.4,73.2,653.4,176.5,653.4,279.7z"/>
	<path d="M96.5,279.9c0-51.7,0-103.4,0-155c0-9.1,4-15.4,11.4-18.1c10.7-4,21.7,2.6,23.2,14.1c0.2,1.8,0.2,3.7,0.2,5.5
		c0,102.7,0,205.3,0,308c0,10.4-4.5,17.2-13,19.5c-10.5,2.8-21-4.6-21.8-15.5c-0.1-1.8-0.1-3.7-0.1-5.5
		C96.5,381.9,96.5,330.9,96.5,279.9z"/>
	<path d="M757.9,280.2c0,51.8,0,103.7,0,155.5c0,10.8-6.9,18.4-16.7,18.7c-9.4,0.3-17.1-6.6-18-16.1c-0.1-1.4-0.1-2.8-0.1-4.2
		c0-102.7,0-205.3,0-308c0-10.5,4-16.8,12.3-19.5c10.6-3.5,21.4,3.7,22.4,14.8c0.2,2,0.1,4,0.1,5.9
		C757.9,178.3,757.9,229.3,757.9,280.2z"/>
	<path d="M549,279.7c0,45.6,0,91.2-0.1,136.8c0,3.1-0.2,6.3-1.1,9.2c-2.5,7.6-10.1,12.1-18,11.3c-8.1-0.9-14.1-6.7-15.3-14.7
		c-0.3-2-0.4-3.9-0.4-5.9c0-91,0-182.1,0-273.1c0-10.6,4.5-17,13.5-19.5c9.7-2.7,19.9,4.2,21.1,14.2c0.3,2.2,0.2,4.5,0.2,6.8
		C549,189.7,549,234.7,549,279.7z"/>
	<path d="M305.4,280.4c0-45.9,0-91.7,0-137.6c0-10.3,4.3-16.4,13-19c9.4-2.8,19.5,3.3,21.3,12.9c0.5,2.5,0.5,5.1,0.5,7.6
		c0,90.8,0,181.5,0,272.3c0,11.8-5.5,19.1-15.5,20.4c-9.6,1.2-18.4-5.9-19.2-15.5c-0.2-2-0.1-4-0.1-5.9
		C305.4,370.4,305.4,325.4,305.4,280.4L305.4,280.4z"/>
	<path d="M-8,280.2c0-17.7-0.1-35.4,0-53.1c0-7.6,4.8-13.7,12.1-16.1c7-2.4,14.7-0.4,18.8,5.8c2.1,3.1,3.6,7.3,3.6,11
		c0.3,34.8,0.2,69.6,0.1,104.4c0,10.4-7.7,17.8-17.7,17.7c-9.6-0.1-17-7.8-17-17.9C-8.1,314.8-8,297.5-8,280.2L-8,280.2z"/>
	<path d="M444.6,279.9c0,17.1,0.1,34.3,0,51.4c-0.1,11.4-7.5,18.9-18.1,18.6c-8.4-0.2-15.4-6.6-16.4-15c-0.2-1.4-0.2-2.8-0.2-4.2
		c0-33.7,0-67.4,0-101.1c0-10.3,4.7-16.9,13.5-19.1c10-2.5,20.3,4.5,20.9,15c0.5,9.5,0.3,19,0.3,28.5
		C444.6,262.6,444.6,271.3,444.6,279.9L444.6,279.9z"/>
</g>
<g>
	<path d="M866.1-115h12.3l-34.8,86.5h-2.7l-28.2-70.1l-28.5,70.1h-2.6L746.8-115h12.4L783-55.6l23.9-59.4h11.7l24,59.4L866.1-115z"
		/>
</g>
</svg>
