<?xml version="1.0" encoding="utf-8"?>
<!-- Generator: Adobe Illustrator 19.0.0, SVG Export Plug-In . SVG Version: 6.00 Build 0)  -->
<svg version="1.1" id="Layer_1" xmlns="http://www.w3.org/2000/svg" xmlns:xlink="http://www.w3.org/1999/xlink" x="0px" y="0px"
	 viewBox="-26 -116 906.4 792" style="enable-background:new -26 -116 906.4 792;" xml:space="preserve">
<g>
	<path d="M403,259c106.1,0,212.2,0.1,318.3,0c45.5-0.1,87-31.9,99-75.5c14.2-51.4-9.7-102.9-58.2-124.9c-12.9-5.9-26.6-8.8-40.9-8.9
		c-11-0.1-19-5.9-21.3-15.2C696.4,20.3,706,8,720.8,8.3c45.3,1.1,83,18.7,111.9,53.7c23.3,28.2,34,61.1,32.9,97.5
		c-2.1,67.3-51.4,125.2-117.5,138c-9.6,1.9-19.6,2.8-29.4,2.8c-212.5,0.2-425,0.1-637.4,0.1c-11.9,0-20.2-5.7-22.5-15.3
		c-3.2-13.8,5.5-25.3,19.7-26.1c1.6-0.1,3.2,0,4.8,0C189.9,259,296.5,259,403,259z"/>
	<path d="M451.7,384c-30.9,0-61.8,0-92.8,0c-10.9,0-19.1-5.9-21.3-15.1c-3.3-13.8,5.3-25.4,19.6-26.3c0.4,0,0.9,0,1.3,0
		c61.5,0,123.1-0.5,184.6,0.2c64.6,0.7,123,48.6,137.3,111.4c16.2,71-17.9,140.6-85.1,168.7c-53.4,22.4-103.9,13.9-149.7-21.4
		c-9.2-7.1-10.1-20-2.9-29.2c6.8-8.7,18.7-10.3,27.9-3.1c15.2,11.8,32,19.6,51,22.9c46.6,8.2,96-19.2,113.5-63.2
		c18.6-46.7,4-97.1-37-126.2c-17.1-12.2-36.4-18.5-57.4-18.6C511.2,383.8,481.4,384,451.7,384L451.7,384z"/>
	<path d="M319.5,175.4c26.4,0,52.8,0,79.2,0c50.3-0.1,92.4-34.1,103.1-83.3c12.2-55.9-24.9-112.9-81.4-124
		c-32.4-6.4-61.9,0.6-87.7,21.6c-5.9,4.8-12.1,8.2-19.9,6.4c-7.8-1.7-13.6-6.2-15.7-14c-2.2-8-0.2-15.4,6-21.1
		c13.5-12.4,29-21.7,46.3-27.8c81.9-28.7,168.6,16.6,191,100.3c21.4,80.2-28.5,162-110.1,179.7c-10.1,2.2-20.7,3.4-31,3.4
		c-55,0.3-110,0.2-165,0.1c-11.4,0-19.5-5.5-22-14.9c-3.8-14.2,5.8-26.4,21-26.5c18-0.1,36,0,54,0
		C298,175.4,308.7,175.4,319.5,175.4z"/>
	<path d="M99.4,384c-29.6,0-59.2,0-88.8,0c-11.1,0-19.3-6-21.4-15.5c-3.2-14.1,6-25.7,20.8-25.9c9.9-0.2,19.7,0,29.6,0
		c49.5,0,98.9,0,148.4,0c11.6,0,19.8,5.7,22.1,15.3c3.5,14.3-6.1,26.1-21.5,26.1C158.9,384.1,129.1,384,99.4,384z"/>
	<path d="M148.4,216.8c-11.2,0-20.8-9.7-20.6-21c0.1-11.1,9.6-20.4,20.7-20.4c11.1,0,20.5,9.4,20.6,20.5
		C169.2,207.2,159.6,216.8,148.4,216.8z"/>
</g>
</svg>
